<?xml version="1.0" standalone="no"?>
<!DOCTYPE svg PUBLIC "-//W3C//DTD SVG 20010904//EN"
 "http://www.w3.org/TR/2001/REC-SVG-20010904/DTD/svg10.dtd">
<svg version="1.0" xmlns="http://www.w3.org/2000/svg"
 width="1024.000000pt" height="1024.000000pt" viewBox="0 0 1024.000000 1024.000000"
 preserveAspectRatio="xMidYMid meet">
<metadata>
Created by potrace 1.14, written by Peter Selinger 2001-2017
</metadata>
<g transform="translate(0.000000,1024.000000) scale(0.100000,-0.100000)"
fill="#000000" stroke="none">
<path d="M0 5120 l0 -5120 5120 0 5120 0 0 5120 0 5120 -5120 0 -5120 0 0
-5120z m1093 3563 c-7 -2 -19 -2 -25 0 -7 3 -2 5 12 5 14 0 19 -2 13 -5z m54
-85 c-2 -13 -4 -3 -4 22 0 25 2 35 4 23 2 -13 2 -33 0 -45z m1876 -16 l57 -5
0 -48 0 -49 93 0 c50 0 98 -4 106 -9 10 -6 13 -30 12 -85 l-1 -77 72 3 73 3 5
35 5 35 500 0 500 0 17 -37 c14 -29 25 -38 52 -43 62 -12 69 -6 81 65 l10 65
83 3 82 3 0 68 c0 63 2 69 23 75 32 8 780 7 793 -2 7 -4 14 -18 15 -32 4 -23
8 -25 67 -28 l62 -3 1 -512 c1 -657 3 -724 18 -769 7 -20 20 -39 29 -42 9 -2
29 -7 43 -10 24 -5 31 -17 60 -106 32 -97 34 -100 63 -100 26 -1 28 -2 14 -11
-11 -6 -18 -22 -18 -39 0 -25 -4 -30 -24 -30 -35 0 -78 -18 -71 -30 3 -5 31
-10 61 -10 l54 0 0 -170 0 -170 26 10 c30 12 74 13 74 3 0 -5 15 -8 32 -7 l33
1 3 122 c2 103 5 121 16 112 9 -8 47 -11 103 -9 l88 3 3 98 3 98 107 -3 107
-3 3 -212 2 -213 -102 0 -103 0 3 -105 3 -105 94 0 93 0 7 -29 c3 -16 15 -46
26 -67 10 -21 19 -47 19 -59 0 -27 12 -44 41 -59 30 -15 42 -86 33 -194 l-6
-74 54 3 53 3 3 -194 c1 -109 7 -199 12 -205 6 -7 29 -15 52 -18 23 -3 48 -13
54 -22 7 -10 30 -19 50 -22 44 -6 87 -31 78 -45 -4 -6 -24 -8 -45 -5 -22 3
-37 1 -33 -4 8 -13 -20 -11 -34 3 -9 9 -12 8 -12 -5 0 -15 11 -17 80 -17 47 0
80 -4 80 -10 0 -5 9 -10 20 -10 19 0 20 7 20 165 l0 165 68 0 c37 0 73 -4 80
-9 9 -6 13 -31 12 -87 -2 -108 -1 -114 10 -114 6 0 10 45 10 115 l0 116 -91
-3 c-78 -2 -93 0 -104 15 -8 12 -15 14 -20 8 -3 -6 -35 -11 -70 -11 -52 0 -65
3 -69 18 -3 9 -5 105 -5 212 l1 195 -83 5 -84 5 -5 123 c-3 67 -2 122 3 122 4
0 7 -5 7 -11 0 -8 5 -8 15 1 8 7 15 8 15 2 0 -13 77 -7 96 9 12 10 15 10 12
-1 -2 -7 3 -15 10 -17 9 -4 12 61 12 305 0 308 6 372 35 372 17 0 25 33 25
111 0 75 9 89 62 89 l38 0 0 89 0 90 -42 4 -43 4 49 1 49 2 -7 -192 c-4 -105
-9 -195 -12 -200 -3 -4 -22 -9 -42 -10 -32 -1 -31 -2 13 -7 l50 -6 2 -95 c1
-52 2 -100 3 -107 0 -8 27 -11 88 -11 l87 0 7 -43 c3 -24 7 -74 7 -111 l1 -68
-100 0 -100 0 0 -110 0 -110 83 0 c45 0 89 4 97 10 8 5 19 5 25 0 5 -4 21 -10
35 -13 25 -4 25 -4 -2 -6 l-28 -1 2 -92 c0 -51 3 -78 5 -61 4 32 5 32 27 18
16 -11 37 -14 72 -10 54 7 60 10 67 40 3 11 5 0 6 -25 1 -25 5 -51 10 -58 4
-8 38 -15 80 -19 39 -3 75 -11 79 -17 4 -6 9 -60 12 -121 l5 -110 50 -3 c68
-4 75 -16 75 -128 l0 -93 33 -5 c17 -3 162 -7 320 -9 316 -3 307 -1 307 -64
l0 -33 83 0 c89 0 107 -8 107 -47 0 -13 6 -23 13 -24 6 0 1 -5 -12 -10 -19 -8
-27 -6 -33 6 -7 12 -28 15 -93 15 -89 0 -92 2 -86 48 2 9 -67 12 -314 12
l-315 0 0 -130 0 -130 -39 0 c-66 0 -161 -12 -161 -21 0 -5 7 -5 17 -2 11 4
14 3 9 -5 -4 -7 -2 -12 3 -12 7 0 11 -31 11 -81 0 -44 -4 -78 -9 -75 -5 3 -11
-1 -15 -9 -4 -10 1 -15 14 -15 18 0 20 -7 20 -85 l0 -85 80 0 80 0 0 -85 0
-86 75 7 c66 6 75 5 75 -10 0 -9 9 -24 21 -34 19 -16 20 -24 13 -179 l-7 -163
39 -2 c21 -1 74 0 116 1 l77 3 3 -78 3 -79 108 3 107 4 0 -516 0 -516 -85 0
-85 0 0 -60 0 -60 -330 0 -330 0 0 210 0 210 -74 0 c-41 0 -81 3 -90 6 -14 5
-16 42 -16 305 l0 298 -77 3 -78 3 4 194 c3 156 1 195 -10 202 -8 5 -47 9 -87
9 l-73 0 2 88 2 87 -69 0 -69 0 -3 192 -2 192 -83 3 -82 3 0 100 0 100 -132 3
-133 3 0 99 0 100 -185 0 -185 0 0 105 0 105 -110 0 -110 0 0 70 0 70 -322 2
-323 3 -3 118 -3 117 107 0 107 0 -7 48 c-3 27 -3 63 0 80 6 32 7 32 66 32
l60 0 -4 80 -3 79 125 3 125 3 3 83 3 82 -49 0 c-27 0 -91 -3 -141 -7 l-93 -6
4 -84 3 -83 -247 0 -248 0 0 -75 c0 -64 2 -75 18 -76 9 0 51 -2 92 -2 l75 -2
3 -67 3 -68 -88 0 c-48 0 -93 -4 -99 -8 -6 -4 -10 -29 -10 -57 l1 -50 -217 -3
-218 -2 0 -64 0 -64 -422 -6 c-233 -4 -533 -6 -668 -4 l-245 3 1 67 0 68 -190
2 -191 3 -3 63 -3 62 -104 0 -105 0 0 60 0 60 -110 0 -110 0 0 80 0 81 -142
-1 c-79 -1 -155 -1 -170 0 l-28 0 0 85 0 86 -92 -3 -93 -3 -3 -92 -3 -93 101
0 100 0 0 -70 0 -70 155 0 155 0 0 -27 c0 -16 -7 -37 -15 -47 -22 -29 -19 -56
6 -56 45 0 59 -17 59 -75 l0 -55 100 0 99 0 3 -67 3 -68 98 0 97 0 0 -140 c0
-77 3 -204 7 -282 l6 -143 94 0 93 0 0 100 0 100 650 0 649 0 3 -97 3 -98 98
1 97 0 0 -98 0 -98 -90 0 -90 0 0 -300 0 -300 -115 0 -115 0 -1 -307 c-1 -170
-2 -380 -4 -468 -1 -88 -3 -222 -3 -298 l-2 -138 -102 3 -103 3 -3 107 -3 107
-37 -1 c-51 -2 -86 -37 -39 -39 l22 -2 -22 -4 c-37 -7 -26 -23 16 -23 36 0 39
-2 44 -32 3 -18 4 -58 3 -88 l-2 -55 113 3 113 3 0 -80 0 -81 -110 0 c-64 0
-110 4 -110 10 0 5 -7 7 -15 3 -18 -6 -14 -29 4 -26 8 2 11 -28 11 -98 l0
-102 -37 7 c-21 4 -55 8 -75 8 l-38 1 -2 76 c0 42 -1 83 0 91 1 8 4 80 7 160
4 80 11 167 17 194 8 39 8 50 -3 57 -11 7 -10 9 4 9 14 0 17 -10 19 -57 l1
-58 6 60 6 60 -40 3 c-22 2 -44 7 -49 13 -6 5 -70 9 -143 9 l-133 0 -2 328
c-2 180 -3 359 -3 397 l0 70 -197 3 -198 2 -2 198 -3 197 -97 -3 -98 -4 0 286
0 286 -90 0 -90 0 0 -291 0 -290 85 2 85 2 6 -239 c4 -131 8 -241 10 -243 2
-2 44 -5 94 -5 l90 -1 0 -346 0 -346 -31 -7 c-17 -3 -54 -6 -81 -6 l-49 0 3
-470 3 -470 -72 0 c-71 0 -73 1 -73 24 0 31 -14 40 -30 20 -7 -8 -19 -13 -27
-10 -9 4 -13 -4 -13 -29 0 -24 5 -35 15 -35 8 0 16 6 16 13 1 6 5 -1 9 -18 4
-16 8 -110 9 -207 l1 -178 -100 0 -99 0 -3 108 -3 107 -117 3 -118 3 0 88 0
88 115 -5 c75 -3 115 -1 115 5 0 7 -41 12 -102 13 -57 1 -108 2 -114 3 -8 0
-13 58 -17 191 -5 232 -10 256 -47 256 -19 0 -36 32 -25 50 11 17 63 12 69 -7
3 -10 3 -2 0 18 l-4 37 81 1 c45 1 85 3 89 6 9 6 60 -65 60 -84 0 -7 8 -11 18
-9 13 2 18 17 23 58 l6 55 1 -47 c2 -44 4 -48 27 -48 27 0 45 -30 45 -76 0
-20 5 -24 30 -24 29 0 30 -1 30 -47 0 -78 8 -93 45 -93 l32 0 6 107 c4 58 7
159 7 225 l0 118 -34 0 c-39 0 -66 8 -66 21 0 4 14 3 31 -3 39 -14 65 7 55 45
-9 38 -55 87 -80 87 -34 0 -46 19 -46 71 0 29 -5 49 -12 52 -7 3 0 6 15 6 l28
1 -3 118 -3 117 -87 3 -88 3 0 209 c0 210 0 210 22 210 16 0 19 3 11 11 -7 7
-24 8 -54 1 -24 -5 -34 -10 -23 -11 27 -1 34 -25 34 -123 l0 -78 -105 0 c-88
0 -106 -3 -114 -17 -10 -17 -10 -17 -11 0 0 14 -10 17 -59 17 -33 0 -71 4 -85
10 -26 9 -26 11 -26 110 l0 100 83 0 c45 0 92 3 105 6 l22 6 0 349 0 349 -95
0 -95 0 -2 148 c-1 81 -2 167 -1 192 l0 45 -196 0 c-196 0 -196 0 -199 -22 -3
-22 -7 -23 -118 -23 -107 0 -114 1 -114 20 0 19 -6 20 -127 19 -113 0 -124 -2
-93 -12 l35 -12 3 -94 c3 -91 3 -93 25 -86 27 9 58 12 168 13 l87 2 7 37 c5
27 9 33 16 22 5 -8 9 -26 9 -41 0 -26 3 -28 43 -28 l42 0 -3 -70 -4 -70 91 0
91 0 0 -152 c-1 -132 -3 -150 -14 -135 -8 10 -20 48 -27 83 l-13 66 -33 -6
c-18 -3 -48 -9 -66 -12 -54 -9 -61 8 -59 151 2 79 -2 126 -8 130 -18 11 -40
-15 -40 -47 0 -39 -24 -32 -26 8 -1 16 -2 33 -3 37 0 5 -18 7 -38 5 -35 -3
-38 -6 -43 -38 l-5 -35 -121 -3 c-109 -2 -122 -1 -126 15 -3 12 -27 25 -73 38
-74 22 -110 56 -118 110 -3 28 22 72 30 50 2 -6 8 -17 13 -25 9 -13 11 -13 20
0 5 8 8 21 5 28 -2 6 3 12 11 12 12 0 14 7 9 29 -6 28 -4 30 27 33 l33 3 5 74
c5 68 3 75 -15 80 -13 4 -2 8 30 11 l50 5 5 78 c3 44 2 81 -1 83 -4 2 -52 7
-108 10 -117 8 -109 0 -113 124 l-3 75 -40 6 c-33 6 -29 7 25 7 36 0 87 -2
113 -5 l49 -6 -5 -49 c-8 -68 -2 -78 44 -78 34 0 40 -3 46 -27 4 -16 6 -34 5
-40 -2 -10 28 -13 125 -13 70 0 123 4 116 8 -8 5 -13 45 -16 111 l-3 104 -97
-2 -96 -2 0 230 1 231 104 0 c63 0 104 4 104 10 0 6 -3 9 -7 9 -22 -4 -30 3
-29 24 1 17 -5 23 -26 25 -16 2 -28 -2 -28 -8 0 -6 5 -8 10 -5 6 3 10 2 10 -4
0 -6 -12 -8 -30 -4 -22 4 -35 1 -43 -10 -7 -8 -22 -18 -34 -22 l-22 -6 -1 370
0 371 77 2 c43 0 83 2 88 3 6 2 16 3 23 4 9 1 12 49 12 205 0 112 3 211 6 220
5 14 32 16 194 16 141 0 190 -3 198 -13 6 -7 16 -101 21 -212 8 -140 14 -201
23 -207 23 -14 85 -9 99 9 12 13 15 146 17 748 2 402 7 737 11 743 4 6 22 13
41 14 30 3 36 7 40 33 4 23 12 31 35 37 33 7 637 8 728 0z m-2086 -125 c-3 -8
-1 -20 4 -28 7 -11 9 -11 9 4 0 10 7 17 18 16 10 0 12 -3 5 -6 -9 -3 -13 -32
-13 -94 0 -56 -4 -89 -11 -89 -5 0 -7 -4 -4 -10 4 -6 -27 -10 -85 -10 -89 0
-91 0 -101 28 -11 26 -6 143 7 176 4 12 25 16 87 19 45 1 84 4 86 5 2 1 1 -4
-2 -11z m366 -184 c-13 -2 -33 -2 -45 0 -13 2 -3 4 22 4 25 0 35 -2 23 -4z
m90 0 c-7 -2 -21 -2 -30 0 -10 3 -4 5 12 5 17 0 24 -2 18 -5z m36 -109 c0 -53
2 -99 6 -102 4 -4 45 -10 92 -13 97 -6 103 -11 103 -84 0 -77 -15 -98 -83
-114 -55 -13 -57 -14 -57 -47 0 -19 -11 -66 -24 -106 -13 -40 -28 -113 -33
-163 l-8 -90 -85 -3 c-47 -1 -91 2 -98 6 -8 5 -15 42 -19 97 l-6 87 -76 -5
c-42 -2 -86 -1 -99 4 -22 8 -23 13 -20 106 l3 98 100 6 c55 3 116 11 135 17
19 7 58 12 87 12 30 0 55 5 60 13 9 14 7 156 -2 166 -4 3 -41 8 -83 11 l-76 5
0 92 c-1 53 3 95 9 97 6 3 47 5 92 5 l82 1 0 -96z m585 -230 c3 -9 6 -37 6
-62 l0 -47 -81 -2 -81 -1 -3 -59 c-1 -32 -2 -82 -3 -110 l-2 -53 -79 0 c-44 0
-91 4 -105 10 -26 10 -26 10 -23 108 2 54 7 104 11 111 6 10 33 12 100 10 l91
-4 3 35 c6 81 5 80 86 80 58 0 75 -3 80 -16z m3 -186 c-3 -7 -5 -2 -5 12 0 14
2 19 5 13 2 -7 2 -19 0 -25z m-995 -305 c6 -7 27 -13 48 -13 49 0 63 -18 68
-89 4 -51 1 -61 -23 -89 -15 -18 -40 -39 -55 -47 -15 -8 -32 -27 -38 -42 -12
-32 -22 -342 -13 -388 7 -31 10 -32 71 -17 20 5 50 4 70 -1 19 -5 45 -10 58
-11 21 -1 22 -4 22 -102 0 -56 -3 -116 -6 -133 l-7 -32 -111 3 -111 3 -2 230
-2 230 -93 1 c-153 1 -138 -9 -138 88 0 100 4 112 41 132 29 15 29 15 29 114
0 61 -4 101 -11 106 -23 14 17 24 99 24 l82 0 2 108 c2 105 2 105 5 22 2 -46
9 -90 15 -97z m935 160 c-20 -2 -52 -2 -70 0 -17 2 0 4 38 4 39 0 53 -2 32 -4z
m4643 -477 c0 -2 -7 -7 -16 -10 -8 -3 -12 -2 -9 4 6 10 25 14 25 6z m-5774
-222 c36 -17 45 -33 17 -30 -9 0 -23 -10 -30 -24 -12 -24 -13 -24 -13 -3 0 12
5 24 10 26 6 3 5 4 -2 3 -8 -2 -14 -22 -15 -57 -2 -36 1 -47 6 -34 8 19 8 19
15 -2 4 -13 3 -31 -3 -40 -10 -17 -10 -17 -12 2 -1 17 -2 16 -9 -5 -6 -18 -8
-5 -9 46 -1 39 -4 86 -7 103 -8 36 2 39 52 15z m74 -8 c0 -2 -7 -7 -16 -10 -8
-3 -12 -2 -9 4 6 10 25 14 25 6z m37 -2 c-3 -3 -12 -4 -19 -1 -8 3 -5 6 6 6
11 1 17 -2 13 -5z m5093 -236 c0 -5 5 -6 10 -3 16 10 12 -2 -7 -21 -10 -9 -18
-22 -18 -28 0 -28 -18 -17 -31 19 -17 50 -17 48 1 41 8 -3 15 -1 15 4 0 5 7 7
15 4 8 -4 15 -10 15 -16z m674 -156 c24 13 26 8 19 -35 -5 -35 -7 -37 -44 -37
-22 0 -39 5 -39 10 0 6 -8 10 -18 10 -21 0 -42 18 -42 37 0 7 9 13 20 13 11 0
20 -4 20 -10 0 -5 7 -10 16 -10 13 0 14 3 4 15 -10 12 -7 13 17 6 18 -5 37 -5
47 1z m51 -2 c-3 -5 -1 -10 4 -10 6 0 11 6 12 13 0 10 2 10 6 0 2 -7 17 -13
31 -13 l27 0 -25 -20 c-23 -18 -24 -20 -5 -21 16 -1 17 -2 3 -6 -23 -6 -68 25
-68 48 0 11 5 19 11 19 5 0 7 -4 4 -10z m-37 -105 c3 -16 1 -18 -9 -7 -20 19
-49 15 -49 -8 0 -14 7 -20 21 -20 12 0 17 4 13 11 -4 8 0 9 15 4 15 -5 21 -2
21 9 0 9 7 16 15 16 10 0 15 -10 15 -30 0 -20 -5 -30 -15 -30 -8 0 -15 6 -15
13 0 9 -2 9 -8 0 -4 -6 -18 -11 -32 -11 -14 0 -44 -2 -67 -4 -34 -4 -43 -2
-43 10 0 24 31 52 57 52 12 0 23 5 23 11 0 20 55 5 58 -16z m189 -32 c1 -22
-1 -24 -8 -10 -6 9 -7 22 -4 27 9 14 10 13 12 -17z m220 -9 c0 -7 -6 -10 -14
-7 -7 3 -13 14 -13 24 0 16 3 17 13 7 8 -7 14 -18 14 -24z m43 22 c0 -3 -4 -8
-10 -11 -5 -3 -10 -1 -10 4 0 6 5 11 10 11 6 0 10 -2 10 -4z m-370 -19 c0 -8
-7 -14 -15 -14 -11 0 -12 4 -4 14 6 7 13 13 15 13 2 0 4 -6 4 -13z m408 -12
c-3 -3 -9 2 -12 12 -6 14 -5 15 5 6 7 -7 10 -15 7 -18z m-332 -22 c-10 -10
-19 5 -10 18 6 11 8 11 12 0 2 -7 1 -15 -2 -18z m601 -85 c-3 -7 -5 -2 -5 12
0 14 2 19 5 13 2 -7 2 -19 0 -25z m-6089 -111 l3 -107 -91 0 -90 0 0 109 0
109 88 -2 87 -1 3 -108z m1759 -329 c-2 -13 -4 -5 -4 17 -1 22 1 32 4 23 2
-10 2 -28 0 -40z m-1572 -83 c0 -17 -5 -29 -10 -28 -6 1 -9 -17 -6 -43 l3 -44
-52 0 c-59 0 -76 13 -78 56 0 16 -1 34 -2 39 -9 45 -2 50 73 50 l72 0 0 -30z
m2 -97 c-2 -13 -4 -3 -4 22 0 25 2 35 4 23 2 -13 2 -33 0 -45z m4388 -113 l0
-100 -187 -3 -188 -2 0 98 c0 54 3 102 7 106 4 3 88 5 187 4 l181 -3 0 -100z
m-565 -10 l0 -95 -160 0 c-88 0 -160 3 -160 8 0 4 70 6 155 4 l155 -3 0 81 c0
59 -3 80 -12 79 -7 -1 -497 0 -1088 2 l-1075 4 1090 5 c600 3 1091 6 1093 8 1
1 2 -41 2 -93z m-2237 65 c-3 -12 -8 -19 -11 -16 -5 6 5 36 12 36 2 0 2 -9 -1
-20z m1899 -222 c-5 -132 -9 -145 -10 -35 -1 59 1 107 6 107 4 0 6 -33 4 -72z
m3879 -70 l104 -3 3 -92 c3 -91 3 -92 30 -96 15 -2 -39 -5 -120 -6 l-148 -1 0
111 c0 91 2 109 13 101 7 -6 60 -13 118 -14z m-331 -108 l0 -90 89 0 89 0 7
-191 c4 -115 4 -194 -2 -200 -5 -5 -124 -8 -288 -7 l-278 3 2 93 2 92 -68 1
c-37 0 -88 4 -113 7 l-45 7 0 70 0 70 -92 3 -93 3 0 114 0 115 395 0 395 0 0
-90z m-6464 6 c9 -10 13 -51 15 -140 1 -69 0 -129 -3 -131 -3 -3 -42 -8 -87
-10 l-81 -5 0 154 0 153 71 -4 c41 -2 77 -10 85 -17z m2801 -138 c-2 -29 -3
-8 -3 47 0 55 1 79 3 53 2 -26 2 -71 0 -100z m4236 45 c-13 -2 -35 -2 -50 0
-16 2 -5 4 22 4 28 0 40 -2 28 -4z m-8113 -63 c0 -5 -2 -10 -4 -10 -3 0 -8 5
-11 10 -3 6 -1 10 4 10 6 0 11 -4 11 -10z m8170 -120 c0 -6 30 -10 69 -10 100
0 101 -1 101 -79 0 -113 1 -111 -96 -111 -46 0 -84 -3 -84 -7 0 -5 -29 -9 -65
-11 l-65 -3 0 96 c0 52 -1 98 -2 103 -2 4 25 8 60 10 34 2 62 7 62 12 0 6 5
10 10 10 6 0 10 -4 10 -10z m-292 -27 c-10 -2 -26 -2 -35 0 -10 3 -2 5 17 5
19 0 27 -2 18 -5z m-7690 -100 c-10 -2 -28 -2 -40 0 -13 2 -5 4 17 4 22 1 32
-1 23 -4z m8159 -105 c-3 -8 -6 -5 -6 6 -1 11 2 17 5 13 3 -3 4 -12 1 -19z
m-190 -80 c-2 -13 -4 -3 -4 22 0 25 2 35 4 23 2 -13 2 -33 0 -45z m-6859 5
c-3 -44 -5 -48 -30 -51 -27 -3 -28 -2 -28 47 0 50 1 51 31 51 30 0 30 -1 27
-47z m3030 -75 l-2 -113 -5 105 c-4 58 -5 108 -3 113 9 22 12 -4 10 -105z
m4107 32 c65 0 75 -2 75 -17 3 -123 -3 -511 -9 -623 l-8 -145 0 125 -1 125
-76 3 -76 3 0 282 c1 196 4 277 11 265 8 -15 24 -18 84 -18z m-7555 -80 c0 -6
-37 -10 -90 -10 -53 0 -90 4 -90 10 0 6 37 10 90 10 53 0 90 -4 90 -10z m6493
-123 l202 -2 -207 -3 -208 -2 2 68 2 67 3 -62 4 -63 202 -3z m-6436 -233 c-3
-3 -12 -4 -19 -1 -8 3 -5 6 6 6 11 1 17 -2 13 -5z m96 -1 c-7 -2 -19 -2 -25 0
-7 3 -2 5 12 5 14 0 19 -2 13 -5z m3307 -183 c0 -5 -5 -10 -11 -10 -5 0 -7 5
-4 10 3 6 8 10 11 10 2 0 4 -4 4 -10z m-42 -7 c-10 -2 -28 -2 -40 0 -13 2 -5
4 17 4 22 1 32 -1 23 -4z m-2961 -215 c3 -17 1 -19 -11 -9 -8 7 -12 19 -9 27
7 18 16 10 20 -18z m2513 -408 c0 -260 -4 -430 -9 -430 -6 0 -8 70 -6 173 1
94 3 288 4 430 1 141 3 257 6 257 3 0 5 -193 5 -430z m-2350 350 c0 -5 -2 -10
-4 -10 -3 0 -8 5 -11 10 -3 6 -1 10 4 10 6 0 11 -4 11 -10z m3749 -96 c-1 -47
3 -90 9 -96 6 -6 67 -9 161 -6 l151 3 0 -97 0 -97 83 -3 82 -3 -1 -110 c-1
-60 -2 -232 -3 -382 l-1 -272 -67 -3 -68 -3 3 -62 4 -63 -291 0 -290 0 -3 -97
-3 -98 -90 0 -90 0 -3 93 -3 92 -172 0 c-95 0 -189 3 -209 6 l-38 7 0 78 0 79
-185 0 -185 0 0 280 0 280 100 0 100 0 0 90 0 90 162 0 161 0 -6 185 -6 185
245 0 245 0 -7 -95 c-5 -66 -3 -95 4 -95 6 0 14 5 17 10 3 6 48 11 98 11 103
2 91 7 -23 11 l-75 3 -3 83 -3 82 101 0 101 0 -2 -86z m-2312 -170 c-3 -3 -12
-4 -19 -1 -8 3 -5 6 6 6 11 1 17 -2 13 -5z m-2496 -331 c-6 -31 -11 -37 -26
-34 -47 8 -88 5 -92 -6 -3 -9 9 -13 41 -13 25 0 46 -3 46 -7 1 -5 2 -44 4 -88
l3 -80 98 4 c87 3 183 18 131 20 -27 1 -86 65 -86 93 0 33 11 43 46 44 61 2
82 12 77 36 -4 23 -4 23 106 20 102 -3 111 -5 111 -23 0 -23 15 -25 24 -4 5
13 21 15 83 13 l78 -3 0 -95 c0 -52 -1 -170 -3 -262 l-2 -167 -40 -11 c-28 -7
-46 -8 -59 0 -11 6 -90 10 -185 10 -151 0 -166 -2 -166 -17 0 -16 -10 -18 -87
-15 -139 4 -133 0 -133 83 0 63 -2 71 -22 79 l-23 9 23 0 c15 1 22 7 22 20 0
26 18 31 121 31 78 0 89 -2 89 -17 0 -16 12 -18 140 -15 124 3 140 5 140 20 0
15 -22 17 -242 20 -133 2 -243 4 -245 5 -1 2 -5 65 -9 140 -7 131 -8 137 -28
136 -17 -1 -18 -2 -3 -6 14 -4 17 -17 17 -93 0 -81 -2 -88 -21 -93 -31 -8 -49
2 -49 29 0 24 -1 24 -105 24 l-106 0 3 88 3 87 53 3 c32 2 60 -2 68 -9 9 -7
26 -14 40 -15 19 -2 24 2 24 21 0 19 6 24 33 27 17 2 47 0 65 -3 30 -7 32 -5
32 22 0 16 4 29 8 29 5 0 6 -17 3 -37z m7306 -135 c-2 -35 -3 -9 -3 57 0 66 1
94 3 63 2 -32 2 -86 0 -120z m-6334 125 c-18 -2 -48 -2 -65 0 -18 2 -4 4 32 4
36 0 50 -2 33 -4z m1336 -50 c-1 -16 -5 -39 -9 -53 -6 -20 -8 -14 -9 28 -1 28
3 52 9 52 6 0 10 -12 9 -27z m5760 -250 l1 -103 -25 -1 c-14 0 -55 0 -92 -1
l-68 0 -3 105 -3 104 38 7 c21 3 59 6 86 6 l47 0 1 53 2 52 7 -60 c4 -33 8
-106 9 -162z m-5359 -28 c0 -80 -4 -135 -10 -135 -5 0 -7 7 -4 15 4 9 0 15 -7
15 -11 0 -11 3 1 11 11 8 12 12 3 16 -10 3 -10 10 -2 24 5 11 9 32 7 47 -2 21
-8 26 -23 24 -15 -2 -17 0 -6 6 10 8 11 14 1 32 -6 12 -9 24 -6 28 3 3 6 0 6
-6 0 -27 20 -9 26 23 3 19 8 35 10 35 2 0 4 -61 4 -135z m3853 118 c-117 -2
-309 -2 -425 0 -117 1 -22 2 212 2 234 0 329 -1 213 -2z m-3917 -48 c-2 -7 1
-18 7 -25 9 -9 1 -11 -40 -8 -28 1 -49 0 -47 -3 2 -4 -3 -9 -10 -12 -9 -4 -16
-24 -19 -49 -2 -26 -4 -11 -5 37 l-2 80 61 -3 c44 -3 59 -7 55 -17z m3291 3
c-3 -8 -6 -5 -6 6 -1 11 2 17 5 13 3 -3 4 -12 1 -19z m1166 -145 c-29 -2 -77
-2 -105 0 -29 2 -6 3 52 3 58 0 81 -1 53 -3z m-4433 -53 c0 -6 -23 -9 -52 -8
l-53 1 50 7 c28 4 51 8 53 8 1 1 2 -2 2 -8z m-830 -325 l0 -85 124 0 125 0 3
-177 c2 -98 2 -181 0 -185 -2 -5 -138 -8 -303 -8 l-299 0 0 185 0 185 85 0 85
0 0 85 0 85 90 0 90 0 0 -85z m1765 -145 l0 -105 -97 -3 -98 -3 0 105 c0 74 4
106 13 110 6 2 50 4 97 3 l85 -2 0 -105z m3965 106 c0 -2 -13 -6 -30 -8 -16
-3 -30 -1 -30 4 0 4 14 8 30 8 17 0 30 -2 30 -4z m-1665 -20 c17 -1 -12 -4
-62 -4 -51 -1 -93 1 -93 6 0 6 83 6 155 -2z m1612 -28 c-3 -8 -6 -5 -6 6 -1
11 2 17 5 13 3 -3 4 -12 1 -19z m-3309 -180 l-3 -183 -290 0 -290 0 -3 102 -3
102 88 3 88 3 3 78 3 77 205 0 204 0 -2 -182z m3281 136 c24 -5 31 -12 31 -31
0 -27 -25 -42 -43 -24 -16 16 -25 14 -30 -6 -3 -10 -5 1 -6 25 -1 45 0 45 48
36z m-2329 -231 c0 -53 -3 -93 -6 -90 -6 6 -7 57 -5 160 1 15 3 27 6 27 3 0 5
-44 5 -97z m-563 55 c-3 -7 -5 -2 -5 12 0 14 2 19 5 13 2 -7 2 -19 0 -25z
m351 25 c-15 -2 -42 -2 -60 0 -18 2 -6 4 27 4 33 0 48 -2 33 -4z m-3880 -70
c-15 -2 -42 -2 -60 0 -18 2 -6 4 27 4 33 0 48 -2 33 -4z"/>
<path d="M2344 8431 c-2 -2 -4 -397 -4 -877 l0 -873 -82 -3 -83 -3 0 -87 c0
-47 2 -88 5 -91 3 -2 80 -7 173 -11 l167 -6 0 100 0 100 115 0 115 0 0 130 0
130 91 0 91 0 -4 -75 -3 -75 27 0 c27 0 27 -1 30 -72 l3 -73 225 0 225 0 -3
73 -4 72 81 0 80 0 3 73 3 72 113 3 112 3 0 -155 0 -155 -92 -3 -93 -3 -3 -67
-3 -68 53 0 c40 0 49 3 38 11 -11 8 -5 9 25 6 40 -5 40 -5 11 8 -20 8 -25 14
-15 18 8 3 -4 6 -26 8 -24 1 -31 3 -17 6 12 2 22 9 22 14 0 5 6 9 13 8 22 -3
37 1 36 9 -4 21 3 32 17 32 13 0 14 -3 4 -15 -6 -8 -10 -20 -7 -27 4 -9 6 -7
6 4 1 21 32 31 74 23 24 -5 28 -4 17 4 -11 8 -1 11 40 11 106 1 100 -10 100
169 l0 156 120 -3 120 -3 0 -70 0 -69 90 0 90 0 0 -77 0 -78 182 5 183 5 3 67
3 67 62 3 62 3 3 78 3 77 48 0 c27 0 63 -3 80 -6 l31 -6 0 -129 0 -129 233 -2
232 -3 0 -85 c0 -69 3 -85 15 -85 8 0 47 4 87 9 l72 8 3 204 3 204 -87 0 -88
0 -2 758 -3 757 -395 -4 c-217 -1 -397 -5 -399 -6 -2 -2 -6 -33 -8 -68 l-6
-64 -201 -9 c-110 -5 -405 -8 -653 -7 l-453 3 0 -88 0 -87 -92 5 -93 5 -3 88
-3 87 -94 0 -95 0 0 73 0 72 -361 0 c-198 0 -363 -2 -365 -4z m1919 -830 c-3
-262 -8 -479 -12 -483 -3 -4 -5 217 -3 490 1 292 6 491 11 483 5 -8 7 -222 4
-490z m-816 287 c-2 -35 -3 -9 -3 57 0 66 1 94 3 63 2 -32 2 -86 0 -120z
m-170 120 c-3 -7 -5 -2 -5 12 0 14 2 19 5 13 2 -7 2 -19 0 -25z m-3 -383 l-2
-344 62 -4 61 -3 -67 -2 -68 -2 0 343 c0 286 3 357 14 357 1 0 0 -155 0 -345z
m-727 319 c-3 -3 -12 -4 -19 -1 -8 3 -5 6 6 6 11 1 17 -2 13 -5z m211 -241 l3
-93 -121 0 -120 0 0 95 0 96 118 -3 117 -3 3 -92z m2640 5 l3 -87 -83 -3 c-46
-2 -113 -2 -150 0 l-67 3 -3 85 c-2 47 -1 88 1 90 2 2 70 3 150 1 l146 -2 3
-87z m-1761 5 c-3 -10 -5 -2 -5 17 0 19 2 27 5 18 2 -10 2 -26 0 -35z m1140
10 c-3 -10 -5 -4 -5 12 0 17 2 24 5 18 2 -7 2 -21 0 -30z m-1029 -100 c-15 -2
-42 -2 -60 0 -18 2 -6 4 27 4 33 0 48 -2 33 -4z m57 -3 c3 -6 -1 -7 -9 -4 -18
7 -21 14 -7 14 6 0 13 -4 16 -10z m2 -72 c-2 -13 -4 -5 -4 17 -1 22 1 32 4 23
2 -10 2 -28 0 -40z m0 -65 c-3 -10 -5 -4 -5 12 0 17 2 24 5 18 2 -7 2 -21 0
-30z m-1154 -60 l-122 -4 4 -29 c2 -17 -1 -30 -6 -30 -5 0 -9 16 -9 35 l0 35
128 -2 127 -2 -122 -3z m104 -29 c-3 -3 -12 -4 -19 -1 -8 3 -5 6 6 6 11 1 17
-2 13 -5z m0 -236 c-2 -24 -4 -5 -4 42 0 47 2 66 4 43 2 -24 2 -62 0 -85z
m1800 116 c-3 -3 -12 -4 -19 -1 -8 3 -5 6 6 6 11 1 17 -2 13 -5z m-1094 -156
c8 -5 6 -8 -5 -8 -16 0 -18 10 -16 78 l2 77 3 -70 c2 -39 9 -73 16 -77z m974
95 c-3 -10 -5 -4 -5 12 0 17 2 24 5 18 2 -7 2 -21 0 -30z m0 -80 c-3 -10 -5
-4 -5 12 0 17 2 24 5 18 2 -7 2 -21 0 -30z m-854 -20 c-7 -2 -19 -2 -25 0 -7
3 -2 5 12 5 14 0 19 -2 13 -5z m-473 -169 l0 -154 -64 0 -63 0 -8 149 c-4 83
-5 154 -2 158 3 4 35 6 71 5 l66 -4 0 -154z m324 134 c3 -13 3 -83 -1 -155
l-6 -133 -69 0 -68 0 0 155 0 155 69 0 c63 0 69 -2 75 -22z m173 -75 c-2 -21
-4 -6 -4 32 0 39 2 55 4 38 2 -18 2 -50 0 -70z m993 -59 l0 -156 -31 6 c-17 3
-51 6 -75 6 l-44 0 0 150 0 150 75 0 75 0 0 -156z m340 76 l0 -80 -70 0 -70 0
0 80 0 80 70 0 70 0 0 -80z m-703 -32 c-2 -13 -4 -5 -4 17 -1 22 1 32 4 23 2
-10 2 -28 0 -40z m-477 -388 c0 -5 -4 -10 -9 -10 -6 0 -13 5 -16 10 -3 6 1 10
9 10 9 0 16 -4 16 -10z"/>
<path d="M5212 7710 c0 -19 2 -27 5 -17 2 9 2 25 0 35 -3 9 -5 1 -5 -18z"/>
<path d="M5660 7210 l-75 -5 -3 -52 -4 -53 94 0 c51 0 88 4 81 8 -6 4 -13 30
-15 57 l-3 50 -75 -5z"/>
<path d="M4093 6623 c31 -2 57 -8 57 -13 0 -5 7 -7 15 -4 12 5 15 -2 15 -30 0
-25 -4 -36 -15 -36 -17 0 -20 -16 -5 -25 6 -3 10 -1 10 6 0 7 3 9 7 5 5 -4 -1
-14 -11 -22 -19 -14 -19 -14 2 -14 20 0 22 5 22 64 0 74 -5 77 -100 74 l-55
-2 58 -3z"/>
<path d="M3890 6570 c0 -5 5 -10 11 -10 5 0 7 5 4 10 -3 6 -8 10 -11 10 -2 0
-4 -4 -4 -10z"/>
<path d="M2050 6520 c0 -5 7 -7 15 -4 8 4 15 8 15 10 0 2 -7 4 -15 4 -8 0 -15
-4 -15 -10z"/>
<path d="M3878 6473 c6 -2 18 -2 25 0 6 3 1 5 -13 5 -14 0 -19 -2 -12 -5z"/>
<path d="M3926 6468 c4 -6 -12 -9 -45 -7 l-51 4 0 -142 0 -143 -103 0 c-57 0
-106 -2 -108 -4 -2 -2 -2 -27 -1 -55 l4 -51 229 0 229 0 0 50 0 49 -62 3 -63
3 -1 149 c-1 130 -4 150 -18 152 -9 1 -13 -2 -10 -8z"/>
<path d="M1450 6450 c21 -7 22 -8 5 -9 -18 -1 -17 -3 6 -15 33 -17 90 -31 69
-16 -12 8 -10 10 12 10 37 0 58 10 58 26 0 11 -19 14 -87 13 -60 -1 -80 -4
-63 -9z"/>
<path d="M1520 6353 c1 -14 27 -43 38 -43 19 0 23 18 6 34 -16 16 -44 22 -44
9z"/>
<path d="M1790 6110 l-5 -85 -45 -5 -45 -5 53 -8 52 -8 0 -119 0 -120 49 0
c65 0 76 -15 73 -94 -3 -65 -10 -75 -57 -77 -27 -2 -25 -3 10 -9 36 -7 34 -7
-24 -9 -35 0 -61 -4 -57 -8 8 -8 354 -5 367 3 5 3 9 -28 9 -68 0 -121 -2 -118
101 -118 l89 0 3 -172 c2 -133 3 -112 5 95 l2 267 -49 0 c-80 0 -141 11 -141
26 0 8 -5 14 -11 14 -5 0 -8 -4 -4 -9 3 -6 -16 -12 -42 -16 -27 -3 -59 -7 -73
-9 -51 -8 -60 7 -60 99 l0 85 91 0 c53 0 88 -4 84 -9 -3 -5 -1 -12 4 -15 9 -6
21 40 21 85 l0 29 -100 0 -100 0 0 80 0 80 -95 0 -94 0 -3 93 -3 92 -5 -85z"/>
<path d="M7301 6084 c0 -11 3 -14 6 -6 3 7 2 16 -1 19 -3 4 -6 -2 -5 -13z"/>
<path d="M2362 6030 c0 -19 2 -27 5 -17 2 9 2 25 0 35 -3 9 -5 1 -5 -18z"/>
<path d="M7058 5843 c6 -2 18 -2 25 0 6 3 1 5 -13 5 -14 0 -19 -2 -12 -5z"/>
<path d="M2173 5680 c0 -25 2 -35 4 -22 2 12 2 32 0 45 -2 12 -4 2 -4 -23z"/>
<path d="M7272 5330 c0 -19 2 -27 5 -17 2 9 2 25 0 35 -3 9 -5 1 -5 -18z"/>
<path d="M7266 5281 c-4 -5 -2 -20 3 -33 9 -21 10 -21 10 10 1 32 -3 39 -13
23z"/>
<path d="M2752 4300 c0 -14 2 -19 5 -12 2 6 2 18 0 25 -3 6 -5 1 -5 -13z"/>
<path d="M7971 4274 c0 -11 3 -14 6 -6 3 7 2 16 -1 19 -3 4 -6 -2 -5 -13z"/>
<path d="M8122 4120 c0 -14 2 -19 5 -12 2 6 2 18 0 25 -3 6 -5 1 -5 -13z"/>
<path d="M2378 4113 c7 -3 16 -2 19 1 4 3 -2 6 -13 5 -11 0 -14 -3 -6 -6z"/>
<path d="M2630 4112 c0 -9 80 -5 89 4 2 2 -17 4 -42 4 -26 0 -47 -4 -47 -8z"/>
<path d="M8121 4074 c0 -11 3 -14 6 -6 3 7 2 16 -1 19 -3 4 -6 -2 -5 -13z"/>
<path d="M2590 2685 c0 -10 10 -15 34 -15 45 0 55 16 15 24 -45 9 -49 8 -49
-9z"/>
<path d="M6595 6370 c-3 -5 -1 -10 4 -10 6 0 11 5 11 10 0 6 -2 10 -4 10 -3 0
-8 -4 -11 -10z"/>
<path d="M5453 3130 c0 -30 2 -43 4 -27 2 15 2 39 0 55 -2 15 -4 2 -4 -28z"/>
<path d="M1916 2944 c3 -82 0 -90 -37 -98 -40 -8 -37 -26 6 -28 19 -1 43 -2
52 -2 14 -1 18 10 21 63 5 85 -4 131 -26 131 -16 0 -18 -9 -16 -66z"/>
<path d="M1970 2891 c0 -68 3 -89 13 -86 17 7 17 167 0 172 -10 4 -13 -18 -13
-86z"/>
<path d="M1398 2963 c7 -3 16 -2 19 1 4 3 -2 6 -13 5 -11 0 -14 -3 -6 -6z"/>
<path d="M1855 2900 c-8 -14 13 -40 32 -40 20 0 12 44 -9 48 -9 2 -19 -2 -23
-8z"/>
</g>
</svg>
