<?xml version="1.0" standalone="no"?>
<!DOCTYPE svg PUBLIC "-//W3C//DTD SVG 20010904//EN"
 "http://www.w3.org/TR/2001/REC-SVG-20010904/DTD/svg10.dtd">
<svg version="1.0" xmlns="http://www.w3.org/2000/svg"
 width="2048.000000pt" height="2048.000000pt" viewBox="0 0 2048.000000 2048.000000"
 preserveAspectRatio="xMidYMid meet">
<metadata>
Created by potrace 1.14, written by Peter Selinger 2001-2017
</metadata>
<g transform="translate(0.000000,2048.000000) scale(0.100000,-0.100000)"
fill="#000000" stroke="none">
<path d="M0 10240 l0 -10240 10240 0 10240 0 0 10240 0 10240 -10240 0 -10240
0 0 -10240z m10580 4832 c0 -9 -11 -46 -25 -82 -106 -282 -124 -627 -49 -915
9 -33 17 -64 18 -70 13 -56 150 -306 198 -363 33 -39 34 -42 8 -70 -12 -12
-16 -22 -9 -22 6 0 9 -6 6 -14 -4 -9 2 -13 16 -12 11 1 22 7 23 14 1 7 0 8 -3
2 -2 -5 -8 -10 -13 -10 -15 0 -18 26 -5 43 11 16 18 11 66 -50 30 -37 94 -115
144 -173 188 -220 298 -378 390 -565 125 -255 182 -537 157 -779 -32 -299 -87
-478 -247 -801 -138 -280 -179 -389 -172 -461 6 -62 53 -167 96 -216 18 -21
60 -51 93 -68 53 -26 72 -30 140 -30 156 0 273 47 401 160 58 51 94 103 148
211 93 185 116 401 69 644 -12 66 -29 132 -37 148 -7 15 -11 27 -7 27 13 0
182 -147 274 -240 192 -191 331 -385 439 -612 71 -149 102 -261 141 -503 24
-145 25 -248 5 -417 -30 -262 -98 -485 -219 -721 -68 -133 -195 -329 -209
-320 -6 3 -7 1 -3 -5 4 -6 -14 -47 -39 -91 -76 -132 -108 -230 -109 -336 -1
-114 12 -156 72 -230 78 -97 199 -144 321 -124 64 10 115 42 193 122 31 31 58
54 60 50 3 -5 3 -3 2 4 -2 6 13 42 32 80 51 101 68 199 55 316 -6 52 -14 102
-17 111 -14 36 14 12 44 -37 42 -70 96 -202 121 -301 59 -227 48 -648 -24
-938 -50 -199 -134 -418 -240 -623 -110 -212 -344 -526 -506 -680 -149 -141
-354 -299 -376 -291 -8 3 -12 2 -9 -3 9 -13 -170 -126 -347 -219 -248 -131
-725 -271 -1036 -303 -158 -17 -338 -22 -370 -11 -21 7 -31 7 -33 0 -5 -13
-302 23 -471 57 -253 51 -668 189 -651 216 3 5 -2 6 -10 3 -43 -17 -480 246
-661 398 -136 113 -408 396 -400 416 3 9 3 13 -1 9 -4 -4 -16 0 -26 10 -20 18
-25 38 -6 27 7 -4 8 -3 4 5 -4 6 -11 9 -16 6 -18 -11 -235 327 -225 352 2 8 1
12 -4 9 -4 -3 -33 45 -64 107 -160 321 -248 695 -264 1122 -5 146 8 390 27
490 62 327 125 521 251 780 99 202 123 241 261 412 56 69 107 127 115 130 21
8 28 -5 15 -30 -28 -55 -72 -210 -82 -292 -23 -183 27 -368 119 -447 78 -66
186 -86 268 -49 23 11 43 17 46 15 2 -3 18 8 34 23 16 15 53 50 81 76 29 26
64 70 77 98 14 27 30 47 35 44 5 -3 7 1 4 9 -3 9 3 30 14 48 40 66 56 146 56
273 0 107 -3 128 -27 188 -32 79 -100 187 -166 260 -26 29 -60 68 -75 87 -16
19 -77 86 -135 149 -58 62 -105 120 -105 127 1 8 -2 11 -7 8 -9 -5 -107 141
-150 226 -99 197 -151 527 -120 762 30 221 113 464 217 636 104 172 403 534
358 435 -4 -10 -25 -85 -47 -168 l-39 -150 5 -200 c5 -205 20 -298 63 -400 47
-114 188 -281 272 -324 66 -34 164 -61 252 -70 108 -11 168 -6 261 20 41 11
88 21 106 22 17 1 34 5 38 9 4 4 -4 4 -17 1 -12 -2 12 14 55 36 243 127 420
303 574 570 24 41 43 76 43 77 0 2 11 28 25 59 28 61 85 229 85 251 0 8 3 14
8 14 4 0 7 12 8 28 0 15 6 62 12 105 15 100 15 257 0 372 -7 50 -12 102 -12
118 -1 15 -4 27 -7 27 -3 0 -11 26 -18 58 -7 31 -15 65 -18 76 -4 13 -1 17 8
12 8 -4 7 -1 -2 6 -29 24 -149 431 -181 613 -17 99 -19 144 -14 260 7 168 9
191 31 291 58 265 251 588 517 867 28 29 48 29 48 -1z"/>
<path d="M10423 14645 c0 -22 2 -30 4 -17 2 12 2 30 0 40 -3 9 -5 -1 -4 -23z"/>
<path d="M10402 14640 c0 -19 2 -27 5 -17 2 9 2 25 0 35 -3 9 -5 1 -5 -18z"/>
<path d="M10213 14593 c-4 -10 -11 -22 -17 -26 -7 -6 -4 -7 6 -3 12 3 18 -2
21 -17 3 -20 4 -21 12 -3 5 12 3 21 -5 26 -7 4 -10 15 -7 24 4 9 4 16 1 16 -2
0 -8 -8 -11 -17z"/>
<path d="M10320 14570 c0 -5 5 -10 10 -10 6 0 10 5 10 10 0 6 -4 10 -10 10 -5
0 -10 -4 -10 -10z"/>
<path d="M10380 14570 c0 -5 5 -10 10 -10 6 0 10 5 10 10 0 6 -4 10 -10 10 -5
0 -10 -4 -10 -10z"/>
<path d="M10195 14490 c-3 -5 -1 -10 4 -10 6 0 11 5 11 10 0 6 -2 10 -4 10 -3
0 -8 -4 -11 -10z"/>
<path d="M10413 14450 c0 -30 2 -43 4 -27 2 15 2 39 0 55 -2 15 -4 2 -4 -28z"/>
<path d="M10145 14479 c-4 -6 -5 -12 -2 -15 2 -3 7 2 10 11 7 17 1 20 -8 4z"/>
<path d="M10365 14390 c3 -5 13 -10 21 -10 8 0 14 5 14 10 0 6 -9 10 -21 10
-11 0 -17 -4 -14 -10z"/>
<path d="M10369 14336 c-2 -2 -3 -43 -1 -90 3 -66 7 -86 18 -86 9 0 14 -11 14
-32 0 -44 10 -30 14 20 2 26 -1 40 -8 39 -6 -1 -12 9 -14 22 -2 15 0 21 7 17
7 -5 11 7 10 36 l-2 43 -8 -35 c-7 -30 -7 -28 -5 18 2 35 -1 52 -9 52 -6 0
-14 -2 -16 -4z"/>
<path d="M10426 14269 c-4 -8 -3 -26 2 -39 l9 -24 13 23 c6 13 7 21 2 17 -6
-3 -12 4 -15 16 -3 18 -5 20 -11 7z"/>
<path d="M10028 14120 c-9 -22 -11 -37 -5 -41 5 -4 7 -15 3 -24 -3 -9 -3 -22
1 -28 11 -18 13 -99 4 -111 -5 -6 -11 -22 -14 -36 -4 -22 -4 -21 -6 7 0 17 3
33 8 35 5 2 3 9 -5 16 -13 12 -15 0 -12 -92 2 -58 6 -106 11 -106 4 0 7 5 7
10 0 6 7 10 15 10 8 0 15 -7 15 -15 0 -8 -5 -15 -11 -15 -5 0 -7 -4 -4 -10 3
-5 2 -17 -3 -26 -10 -18 6 -114 19 -114 12 0 11 37 -1 61 -8 15 -7 19 4 19 8
0 17 -6 19 -12 4 -8 6 -7 6 4 1 9 -4 18 -10 20 -8 3 -7 8 2 18 16 16 15 35 -1
125 -6 33 -8 75 -5 95 17 92 17 100 5 100 -8 0 -11 12 -8 35 3 29 1 35 -14 35
-21 0 -22 4 -7 31 6 11 8 25 6 32 -2 7 -11 -4 -19 -23z"/>
<path d="M10103 13800 c0 -25 2 -35 4 -22 2 12 2 32 0 45 -2 12 -4 2 -4 -23z"/>
<path d="M10590 13690 c0 -5 5 -10 11 -10 5 0 7 5 4 10 -3 6 -8 10 -11 10 -2
0 -4 -4 -4 -10z"/>
<path d="M10071 13594 c0 -11 3 -14 6 -6 3 7 2 16 -1 19 -3 4 -6 -2 -5 -13z"/>
<path d="M10645 13600 c-3 -5 -1 -10 4 -10 6 0 11 5 11 10 0 6 -2 10 -4 10 -3
0 -8 -4 -11 -10z"/>
<path d="M10058 13537 c-3 -14 0 -24 7 -24 7 0 10 10 7 24 -2 13 -6 23 -7 23
-1 0 -5 -10 -7 -23z"/>
<path d="M10884 13390 c0 -13 4 -16 10 -10 7 7 7 13 0 20 -6 6 -10 3 -10 -10z"/>
<path d="M10136 13345 c-3 -9 -5 -29 -5 -43 1 -20 3 -17 9 13 8 43 7 57 -4 30z"/>
<path d="M10917 13293 c-3 -5 8 -8 25 -9 20 -1 25 2 16 7 -16 11 -35 11 -41 2z"/>
<path d="M10967 13244 c-8 -8 3 -34 15 -34 7 0 6 5 -1 13 -6 8 -8 17 -4 20 3
4 4 7 1 7 -2 0 -7 -3 -11 -6z"/>
<path d="M10210 13112 c0 -12 19 -26 26 -19 2 2 -2 10 -11 17 -9 8 -15 8 -15
2z"/>
<path d="M11106 13052 c-2 -4 2 -12 8 -18 10 -9 15 -8 23 5 8 14 7 17 -8 18
-10 1 -20 -1 -23 -5z"/>
<path d="M11206 12975 c-9 -26 -7 -32 5 -12 6 10 9 21 6 23 -2 3 -7 -2 -11
-11z"/>
<path d="M10225 12959 c-4 -6 -5 -12 -2 -15 2 -3 7 2 10 11 7 17 1 20 -8 4z"/>
<path d="M11190 12936 c0 -9 35 -81 41 -86 7 -5 -10 -24 -23 -28 -15 -4 -8
-17 10 -18 9 -1 22 -2 28 -3 6 -1 15 -16 19 -33 6 -30 8 -31 16 -13 7 16 9 14
6 -11 -2 -21 2 -35 14 -42 18 -12 32 -72 16 -72 -6 0 -2 -9 8 -20 18 -19 19
-20 29 -3 9 16 10 16 17 -2 6 -15 8 -16 8 -4 1 9 -10 28 -23 44 -13 15 -27 45
-30 66 -3 22 -11 39 -17 39 -7 0 -8 11 -4 30 5 24 3 30 -10 30 -11 0 -15 5
-12 14 4 10 0 14 -14 11 -16 -3 -19 2 -20 33 0 20 -3 31 -6 25 -2 -7 -9 -13
-14 -13 -4 0 -5 7 -2 17 4 11 3 14 -5 9 -7 -4 -12 -1 -12 8 0 8 -4 18 -10 21
-5 3 -10 4 -10 1z"/>
<path d="M10231 12904 c0 -11 3 -14 6 -6 3 7 2 16 -1 19 -3 4 -6 -2 -5 -13z"/>
<path d="M11200 12735 c0 -8 5 -15 10 -15 6 0 10 7 10 15 0 8 -4 15 -10 15 -5
0 -10 -7 -10 -15z"/>
<path d="M11281 12683 c-1 -16 -6 -21 -16 -17 -9 4 -15 0 -15 -10 0 -20 29
-21 36 -2 3 8 4 23 1 33 -4 14 -5 14 -6 -4z"/>
<path d="M10309 12631 c10 -7 12 -23 6 -72 -4 -35 -12 -70 -18 -77 -7 -9 -6
-11 5 -7 11 4 18 27 22 76 7 71 4 89 -17 89 -8 0 -7 -3 2 -9z"/>
<path d="M11366 12563 c-6 -14 -5 -15 5 -6 7 7 10 15 7 18 -3 3 -9 -2 -12 -12z"/>
<path d="M11384 12451 c3 -18 6 -37 6 -42 0 -5 4 -9 10 -9 12 0 2 61 -13 75
-6 7 -8 -1 -3 -24z"/>
<path d="M11362 12340 c0 -14 2 -19 5 -12 2 6 2 18 0 25 -3 6 -5 1 -5 -13z"/>
<path d="M11452 12315 c0 -16 2 -22 5 -12 2 9 2 23 0 30 -3 6 -5 -1 -5 -18z"/>
<path d="M11442 12260 c0 -8 4 -26 8 -40 6 -20 8 -21 8 -5 0 11 -3 29 -8 40
-5 12 -8 14 -8 5z"/>
<path d="M11428 12214 c-5 -4 -8 -19 -8 -33 0 -18 3 -22 11 -14 6 6 9 21 7 33
-1 12 -6 18 -10 14z"/>
<path d="M11416 12013 c-6 -14 -5 -15 5 -6 7 7 10 15 7 18 -3 3 -9 -2 -12 -12z"/>
<path d="M11446 12003 c-6 -14 -5 -15 5 -6 7 7 10 15 7 18 -3 3 -9 -2 -12 -12z"/>
<path d="M10195 11930 c-3 -5 -1 -10 4 -10 6 0 11 5 11 10 0 6 -2 10 -4 10 -3
0 -8 -4 -11 -10z"/>
<path d="M10120 11920 c-8 -5 -10 -10 -5 -10 6 0 17 5 25 10 8 5 11 10 5 10
-5 0 -17 -5 -25 -10z"/>
<path d="M8141 11904 c0 -11 3 -14 6 -6 3 7 2 16 -1 19 -3 4 -6 -2 -5 -13z"/>
<path d="M10120 11856 c0 -9 5 -16 10 -16 6 0 10 4 10 9 0 6 -4 13 -10 16 -5
3 -10 -1 -10 -9z"/>
<path d="M10151 11854 c0 -11 3 -14 6 -6 3 7 2 16 -1 19 -3 4 -6 -2 -5 -13z"/>
<path d="M10051 11783 c-10 -26 -10 -27 4 -9 8 11 15 23 15 28 0 15 -7 8 -19
-19z"/>
<path d="M8411 11774 c0 -11 3 -14 6 -6 3 7 2 16 -1 19 -3 4 -6 -2 -5 -13z"/>
<path d="M9979 11672 c11 -8 9 -15 -13 -36 -14 -15 -26 -29 -26 -31 0 -10 10
-4 35 21 27 27 29 45 4 52 -12 3 -12 2 0 -6z"/>
<path d="M11361 11670 c1 -8 4 -26 8 -40 7 -24 7 -24 14 9 4 19 5 36 2 39 -3
3 -5 -1 -5 -9 0 -11 -2 -11 -10 1 -9 13 -10 13 -9 0z"/>
<path d="M12105 11480 c-3 -6 1 -7 9 -4 18 7 21 14 7 14 -6 0 -13 -4 -16 -10z"/>
<path d="M8487 11451 c-3 -12 -1 -21 3 -21 14 0 19 15 11 29 -6 9 -10 7 -14
-8z"/>
<path d="M12125 11459 c-4 -6 -14 -8 -24 -4 -13 5 -14 4 -3 -6 10 -11 15 -10
29 4 10 9 14 17 11 17 -4 0 -10 -5 -13 -11z"/>
<path d="M9796 11451 c-3 -4 4 -7 14 -6 27 2 33 10 10 12 -11 1 -22 -2 -24 -6z"/>
<path d="M8008 11405 c2 -19 6 -35 8 -35 2 0 4 16 4 35 0 19 -4 35 -8 35 -4 0
-6 -16 -4 -35z"/>
<path d="M11281 11424 c0 -11 3 -14 6 -6 3 7 2 16 -1 19 -3 4 -6 -2 -5 -13z"/>
<path d="M11301 11424 c0 -11 3 -14 6 -6 3 7 2 16 -1 19 -3 4 -6 -2 -5 -13z"/>
<path d="M7963 11340 c0 -36 2 -50 4 -32 2 17 2 47 0 65 -2 17 -4 3 -4 -33z"/>
<path d="M7982 11380 c0 -14 2 -19 5 -12 2 6 2 18 0 25 -3 6 -5 1 -5 -13z"/>
<path d="M11291 11384 c0 -11 3 -14 6 -6 3 7 2 16 -1 19 -3 4 -6 -2 -5 -13z"/>
<path d="M12115 11390 c-3 -5 -3 -14 0 -20 3 -5 1 -10 -4 -10 -6 0 -11 -7 -11
-15 0 -8 4 -15 9 -15 13 0 39 43 34 58 -6 15 -19 16 -28 2z"/>
<path d="M8510 11370 c0 -5 7 -10 15 -10 8 0 15 5 15 10 0 6 -7 10 -15 10 -8
0 -15 -4 -15 -10z"/>
<path d="M12184 11365 c-4 -8 -10 -12 -15 -9 -5 3 -9 1 -9 -5 0 -22 19 -19 34
4 9 14 12 25 6 25 -6 0 -13 -7 -16 -15z"/>
<path d="M7992 11344 c-8 -9 -11 -22 -6 -32 4 -9 7 -44 6 -77 -1 -41 2 -55 8
-45 8 12 10 9 10 -12 0 -15 -7 -31 -16 -36 -14 -8 -15 -15 -5 -48 9 -34 10
-35 6 -6 -4 27 -1 32 15 32 18 0 20 7 20 59 0 75 -11 181 -19 181 -3 -1 -12
-8 -19 -16z"/>
<path d="M12246 11317 c-7 -27 7 -42 27 -31 13 8 13 12 -3 31 l-18 22 -6 -22z
m24 -17 c0 -5 -4 -10 -10 -10 -5 0 -10 5 -10 10 0 6 5 10 10 10 6 0 10 -4 10
-10z"/>
<path d="M7967 11241 c-2 -11 -1 -35 3 -53 7 -30 8 -28 9 20 1 54 -3 66 -12
33z"/>
<path d="M11201 11244 c0 -11 3 -14 6 -6 3 7 2 16 -1 19 -3 4 -6 -2 -5 -13z"/>
<path d="M12324 11229 c-3 -6 -2 -15 3 -20 5 -5 9 -1 9 11 0 23 -2 24 -12 9z"/>
<path d="M9485 11220 c12 -5 14 -9 6 -9 -8 -1 -12 -3 -9 -6 3 -3 13 -2 22 1
14 5 15 9 4 15 -7 5 -20 8 -28 8 -10 0 -8 -3 5 -9z"/>
<path d="M9423 11173 c-18 -7 -16 -23 2 -23 8 0 15 7 15 15 0 8 -1 15 -2 14
-2 0 -9 -3 -15 -6z"/>
<path d="M9238 11163 c6 -2 18 -2 25 0 6 3 1 5 -13 5 -14 0 -19 -2 -12 -5z"/>
<path d="M8928 11143 c12 -2 30 -2 40 0 9 3 -1 5 -23 4 -22 0 -30 -2 -17 -4z"/>
<path d="M12406 11128 c3 -5 10 -6 15 -3 13 9 11 12 -6 12 -8 0 -12 -4 -9 -9z"/>
<path d="M8998 11123 c6 -2 18 -2 25 0 6 3 1 5 -13 5 -14 0 -19 -2 -12 -5z"/>
<path d="M11040 11080 c0 -30 4 -40 16 -40 11 0 14 -6 9 -21 -6 -19 -5 -20 16
-9 21 12 21 14 6 25 -9 7 -17 19 -17 28 0 9 -4 18 -10 22 -5 3 -7 12 -3 20 3
8 0 15 -6 15 -6 0 -11 -17 -11 -40z"/>
<path d="M11120 11095 c0 -5 5 -17 10 -25 5 -8 10 -10 10 -5 0 6 -5 17 -10 25
-5 8 -10 11 -10 5z"/>
<path d="M7986 11037 c3 -10 9 -15 12 -12 3 3 0 11 -7 18 -10 9 -11 8 -5 -6z"/>
<path d="M12491 11028 c0 -9 -4 -25 -7 -35 -5 -17 -5 -17 6 0 6 10 9 25 7 35
-4 15 -5 15 -6 0z"/>
<path d="M11050 10923 l-13 -43 -94 0 -93 0 0 -40 c0 -29 4 -40 15 -40 11 0
15 -11 15 -40 0 -33 3 -40 20 -40 17 0 20 -7 20 -40 l0 -40 45 0 45 0 0 -40
c0 -42 24 -58 33 -22 3 9 5 4 4 -13 -2 -69 2 -85 23 -85 13 0 20 7 20 20 0 29
1 33 12 53 8 16 7 18 -11 12 -15 -5 -19 -3 -16 7 3 8 -2 22 -12 31 -14 12 -18
29 -17 67 1 36 -3 50 -13 50 -9 0 -13 12 -12 38 1 41 16 106 18 82 1 -10 7 -6
16 10 16 28 20 54 5 30 -8 -12 -10 -11 -10 7 0 12 6 26 14 30 8 5 11 15 6 28
-6 17 -10 13 -20 -22z m-40 -210 c0 -10 -32 -43 -42 -43 -4 0 -8 11 -8 25 0
20 5 25 25 25 14 0 25 -3 25 -7z"/>
<path d="M8061 10864 c0 -11 3 -14 6 -6 3 7 2 16 -1 19 -3 4 -6 -2 -5 -13z"/>
<path d="M8061 10784 c0 -11 3 -14 6 -6 3 7 2 16 -1 19 -3 4 -6 -2 -5 -13z"/>
<path d="M8110 10750 c0 -27 5 -50 10 -50 6 0 10 23 10 50 0 28 -4 50 -10 50
-5 0 -10 -22 -10 -50z"/>
<path d="M12640 10693 c0 -13 5 -23 10 -23 13 0 13 11 0 30 -8 12 -10 11 -10
-7z"/>
<path d="M11058 10663 c-5 -21 19 -63 35 -63 5 0 2 9 -9 21 -10 12 -18 30 -16
40 4 24 -5 25 -10 2z"/>
<path d="M11905 10670 c-3 -5 -2 -18 4 -27 7 -14 9 -12 8 10 -2 30 -3 31 -12
17z"/>
<path d="M12676 10656 c3 -9 11 -16 16 -16 13 0 5 23 -10 28 -7 2 -10 -2 -6
-12z"/>
<path d="M8135 10648 c-4 -10 -11 -15 -16 -12 -5 3 -6 -2 -3 -11 6 -15 8 -15
22 -2 8 8 12 21 9 29 -3 10 -6 9 -12 -4z"/>
<path d="M8155 10631 c-3 -5 -1 -12 5 -16 12 -7 30 2 30 16 0 12 -27 12 -35 0z"/>
<path d="M10850 10600 c0 -29 4 -40 15 -40 11 0 15 11 15 40 0 29 -4 40 -15
40 -11 0 -15 -11 -15 -40z"/>
<path d="M11895 10590 c-3 -5 -3 -14 0 -20 8 -13 35 -13 35 1 0 5 -5 7 -12 3
-8 -5 -9 -2 -5 9 7 18 -8 24 -18 7z"/>
<path d="M8215 10580 c-3 -5 -4 -10 0 -10 3 0 1 -9 -5 -20 -9 -16 -8 -18 5
-14 8 4 15 1 15 -6 0 -7 6 -5 16 5 9 9 13 19 10 23 -4 3 -11 0 -17 -8 -7 -11
-8 -7 -3 13 6 26 -8 38 -21 17z"/>
<path d="M11789 10533 c-13 -15 -12 -15 9 -4 23 12 28 21 13 21 -5 0 -15 -7
-22 -17z"/>
<path d="M12733 10515 c6 -19 14 -35 19 -35 11 0 10 7 -7 40 -21 40 -26 38
-12 -5z"/>
<path d="M8326 10515 c-10 -28 -7 -35 19 -35 30 0 32 11 6 34 -17 15 -19 15
-25 1z"/>
<path d="M8276 10511 c-3 -5 1 -14 9 -21 12 -10 15 -10 15 3 0 19 -16 31 -24
18z"/>
<path d="M10838 10513 c-23 -3 -38 -9 -38 -18 0 -7 -6 -15 -12 -18 -7 -2 4 -7
26 -11 26 -5 40 -14 43 -27 3 -10 9 -19 14 -19 4 0 3 13 -2 29 -7 20 -15 28
-25 24 -8 -3 -14 0 -14 6 0 6 2 11 4 11 2 0 11 3 19 6 10 3 17 -2 20 -13 3
-10 4 -6 4 10 -1 15 -2 26 -2 25 0 -1 -17 -3 -37 -5z"/>
<path d="M11126 10504 c-8 -20 -8 -24 2 -24 4 0 8 9 9 20 2 24 -3 26 -11 4z"/>
<path d="M11716 10497 c-22 -13 -42 -29 -44 -37 -4 -11 1 -10 19 3 13 10 32
20 41 23 9 3 19 12 22 20 7 17 9 18 -38 -9z"/>
<path d="M11817 10513 c-13 -13 -7 -33 11 -32 11 0 12 2 4 6 -10 4 -10 8 -1
19 11 14 -1 20 -14 7z"/>
<path d="M8191 10494 c0 -11 3 -14 6 -6 3 7 2 16 -1 19 -3 4 -6 -2 -5 -13z"/>
<path d="M8214 10487 c-8 -18 -8 -24 3 -24 7 0 13 11 13 24 0 29 -2 29 -16 0z"/>
<path d="M11160 10490 c-9 -6 -10 -10 -3 -10 6 0 15 5 18 10 8 12 4 12 -15 0z"/>
<path d="M11753 10444 c-18 -24 -25 -26 -99 -26 -43 -1 -68 -3 -55 -5 19 -4
21 -7 10 -15 -9 -6 9 -8 56 -3 45 4 73 11 78 21 4 7 18 14 31 14 15 0 26 7 29
20 8 30 -27 26 -50 -6z"/>
<path d="M10770 10450 c-18 -12 -2 -12 25 0 13 6 15 9 5 9 -8 0 -22 -4 -30 -9z"/>
<path d="M8400 10425 c0 -20 4 -24 25 -23 30 3 31 9 7 31 -25 23 -32 21 -32
-8z"/>
<path d="M11127 10439 c7 -7 15 -10 18 -7 3 3 -2 9 -12 12 -14 6 -15 5 -6 -5z"/>
<path d="M11212 10423 c-13 -5 -7 -23 9 -23 6 0 7 5 3 12 -5 8 0 9 14 6 12 -4
20 -2 16 3 -6 10 -21 11 -42 2z"/>
<path d="M10870 10401 c0 -7 -4 -10 -9 -6 -6 3 -9 -5 -9 -17 3 -46 -2 -79 -11
-74 -15 10 -33 -22 -26 -45 4 -13 3 -19 -3 -15 -22 13 -127 -344 -116 -394 4
-17 3 -21 -4 -12 -6 9 -14 -12 -26 -68 -18 -81 -16 -122 3 -59 5 19 10 26 10
15 1 -10 -9 -34 -20 -53 -19 -30 -22 -54 -26 -201 -3 -107 -1 -183 6 -212 6
-25 13 -61 16 -80 9 -76 123 -383 138 -373 7 4 8 0 4 -11 -4 -10 9 -51 33
-102 22 -48 40 -90 40 -95 0 -4 10 -18 23 -30 12 -12 16 -19 9 -15 -10 6 -9
-2 3 -30 44 -105 68 -153 76 -148 5 3 6 -1 3 -9 -3 -8 2 -30 11 -48 11 -24 14
-27 11 -10 -3 13 2 37 10 52 19 37 18 48 -2 23 -13 -16 -15 -16 -10 -2 3 11 0
17 -7 15 -7 -1 -13 12 -15 31 -3 30 -17 43 -24 22 -1 -6 -2 19 -1 55 1 37 -2
65 -8 65 -6 0 -8 -16 -5 -37 4 -30 4 -33 -3 -13 -5 14 -9 19 -10 12 -1 -7 -6
-10 -11 -7 -8 5 -7 12 2 22 10 13 8 19 -14 38 -15 13 -27 31 -27 42 -3 104 -4
117 -11 93 l-8 -25 -1 28 c-1 15 -5 27 -11 27 -15 0 -12 -33 5 -56 8 -10 14
-28 14 -39 l-1 -20 -5 20 c-3 11 -10 26 -16 34 -6 7 -12 38 -13 68 -2 62 -26
101 -45 73 -8 -12 -9 -10 -4 8 4 12 8 36 10 53 4 31 4 31 -13 11 -17 -20 -18
-20 -28 14 -6 19 -7 34 -3 34 5 0 9 -7 9 -15 0 -8 5 -15 10 -15 7 0 7 6 0 20
-6 11 -15 20 -20 20 -6 0 -10 14 -10 30 0 17 -4 30 -10 30 -5 0 -9 3 -9 8 3
17 -2 26 -9 15 -4 -6 -7 9 -8 34 -1 27 2 39 7 31 6 -9 9 -9 9 -1 0 20 -18 24
-29 6 -9 -16 -10 -16 -11 -1 0 9 5 20 10 23 6 3 10 14 10 23 -1 16 -2 15 -14
-1 -13 -16 -14 -16 -20 9 -4 14 -5 29 -1 32 3 3 5 -1 5 -8 0 -7 2 -11 5 -8 3
3 -2 25 -10 49 -9 24 -12 45 -8 46 4 2 7 77 7 168 -1 111 2 163 9 162 7 -1 10
14 8 40 -1 22 3 50 10 61 11 18 10 24 -6 42 -16 18 -16 20 -2 14 20 -7 24 2
32 76 3 30 13 62 22 72 13 14 14 25 5 58 -5 22 -6 37 -1 34 5 -3 9 7 10 23 0
24 2 25 8 8 7 -16 9 -14 14 14 4 19 7 45 7 58 0 13 7 31 15 39 8 9 15 23 15
32 0 13 -2 13 -15 -4 -14 -18 -14 -18 -8 3 3 12 14 25 24 28 14 5 19 16 19 43
l1 37 14 -25 15 -25 -5 25 c-3 14 1 52 9 85 8 33 13 62 10 64 -2 2 -4 -1 -4
-8z m-87 -1536 c-3 -9 -8 -14 -10 -11 -3 3 -2 9 2 15 9 16 15 13 8 -4z"/>
<path d="M8340 10391 c0 -13 39 -35 48 -27 3 3 0 6 -6 6 -7 0 -11 5 -9 12 1 6
-6 14 -15 16 -10 2 -18 -1 -18 -7z"/>
<path d="M10610 10387 c0 -5 9 -11 20 -14 19 -5 19 -6 -3 -25 l-22 -20 25 15
c14 8 24 21 22 28 -2 7 2 15 8 19 6 4 -3 7 -20 7 -16 0 -30 -5 -30 -10z"/>
<path d="M8441 10356 c-13 -15 -4 -26 21 -26 21 0 24 25 4 33 -8 3 -19 0 -25
-7z"/>
<path d="M10575 10353 c-12 -28 -13 -39 -6 -52 6 -9 11 -8 21 4 11 13 10 14
-6 8 -16 -6 -15 -3 5 25 17 24 19 32 8 32 -8 0 -18 -8 -22 -17z"/>
<path d="M8386 10312 c-6 -10 60 -9 70 1 4 4 -9 7 -29 7 -20 0 -38 -3 -41 -8z"/>
<path d="M8480 10289 c0 -19 -4 -28 -11 -23 -7 4 -9 -2 -7 -17 2 -13 9 -23 15
-22 7 2 21 -9 31 -22 20 -25 39 -35 26 -13 -5 7 -3 8 6 3 10 -6 12 -4 7 9 -4
10 -7 22 -7 27 0 5 -7 9 -15 9 -11 0 -15 11 -15 40 0 29 -4 40 -15 40 -10 0
-15 -10 -15 -31z"/>
<path d="M10485 10310 c-3 -6 1 -7 9 -4 18 7 21 14 7 14 -6 0 -13 -4 -16 -10z"/>
<path d="M10503 10288 c-45 -50 -34 -86 13 -43 15 14 22 25 15 25 -6 0 -14 -7
-17 -15 -7 -16 -24 -21 -24 -6 0 4 12 20 26 35 15 14 22 26 17 26 -5 0 -19
-10 -30 -22z"/>
<path d="M8565 10230 c-3 -5 -4 -14 -1 -19 8 -12 -40 -61 -50 -53 -5 4 -1 -2
8 -13 9 -11 29 -22 44 -23 16 -1 30 -5 33 -10 3 -4 14 -8 24 -8 12 -1 17 6 17
24 0 23 -2 24 -17 10 -21 -17 -53 -13 -53 8 0 8 5 14 11 14 8 0 7 6 -2 17 -11
13 -11 17 -1 20 14 5 16 29 3 38 -5 3 -12 1 -16 -5z m-11 -85 c-4 -8 -11 -12
-16 -9 -6 4 -5 10 3 15 19 12 19 11 13 -6z"/>
<path d="M10403 10217 c8 -22 -2 -49 -16 -40 -6 4 -8 0 -4 -10 6 -17 -15 -30
-37 -21 -21 8 -32 -17 -13 -31 21 -15 22 -29 1 -21 -19 7 -57 -11 -49 -25 8
-12 -1 -12 -24 0 -23 13 -25 -16 -2 -43 15 -18 15 -19 0 -13 -9 3 -26 -1 -38
-9 -12 -8 -27 -12 -34 -8 -8 5 -7 2 2 -9 11 -14 17 -15 30 -5 9 7 19 18 23 23
5 6 8 6 8 -1 0 -6 -18 -27 -40 -48 -36 -33 -58 -39 -27 -7 10 11 9 13 -3 9 -8
-3 -17 -18 -18 -34 -5 -42 -20 -57 -39 -39 -8 8 -19 15 -24 15 -6 0 -3 -7 6
-16 20 -20 15 -39 -11 -39 -13 0 -18 -7 -17 -20 2 -24 -26 -46 -49 -39 -11 3
-19 0 -19 -8 -1 -7 -3 -26 -4 -43 -4 -49 -4 -50 -17 -37 -8 8 -18 0 -40 -34
-34 -55 -36 -69 -3 -29 27 33 34 23 9 -15 -11 -18 -9 -17 10 5 18 21 22 31 13
37 -11 7 -3 12 15 9 4 0 22 21 40 47 49 71 152 193 253 300 50 52 89 101 88
109 0 8 5 12 12 9 7 -2 21 5 32 16 10 12 12 18 6 14 -8 -4 -13 -1 -13 9 0 12
6 15 20 10 28 -9 24 6 -7 29 -23 17 -26 17 -20 3z m-43 -87 c8 -5 12 -12 9
-15 -8 -8 -39 5 -39 16 0 11 11 11 30 -1z m-35 -59 c-3 -6 -11 -8 -17 -5 -6 4
-5 9 3 15 16 10 23 4 14 -10z m-45 -26 c7 -8 8 -15 2 -15 -5 0 -15 7 -22 15
-7 8 -8 15 -2 15 5 0 15 -7 22 -15z m-180 -225 c0 -5 -2 -10 -4 -10 -3 0 -8 5
-11 10 -3 6 -1 10 4 10 6 0 11 -4 11 -10z m-67 -84 c-10 -13 -19 -23 -21 -21
-7 6 19 45 29 45 5 0 2 -11 -8 -24z"/>
<path d="M10442 10219 c2 -7 10 -15 17 -17 8 -3 12 1 9 9 -2 7 -10 15 -17 17
-8 3 -12 -1 -9 -9z"/>
<path d="M8623 10047 c-1 -30 -1 -31 9 -9 7 14 8 26 2 32 -5 5 -10 -4 -11 -23z"/>
<path d="M12812 9990 c0 -14 2 -19 5 -12 2 6 2 18 0 25 -3 6 -5 1 -5 -13z"/>
<path d="M8706 9907 c3 -10 9 -15 12 -12 3 3 0 11 -7 18 -10 9 -11 8 -5 -6z"/>
<path d="M10127 9904 c6 -15 23 -19 23 -5 0 5 -7 11 -14 14 -10 4 -13 1 -9 -9z"/>
<path d="M10087 9864 c3 -7 9 -14 14 -14 14 0 10 17 -5 23 -10 4 -13 1 -9 -9z"/>
<path d="M10026 9825 c4 -8 13 -15 21 -15 13 0 13 3 3 15 -7 8 -16 15 -21 15
-5 0 -6 -7 -3 -15z"/>
<path d="M8780 9794 c0 -16 5 -36 10 -44 7 -11 9 -4 5 24 -5 47 -15 60 -15 20z"/>
<path d="M8761 9744 c0 -11 3 -14 6 -6 3 7 2 16 -1 19 -3 4 -6 -2 -5 -13z"/>
<path d="M8782 9710 c0 -14 2 -19 5 -12 2 6 2 18 0 25 -3 6 -5 1 -5 -13z"/>
<path d="M10712 9705 c0 -16 2 -22 5 -12 2 9 2 23 0 30 -3 6 -5 -1 -5 -18z"/>
<path d="M8772 9655 c0 -16 2 -22 5 -12 2 9 2 23 0 30 -3 6 -5 -1 -5 -18z"/>
<path d="M9925 9669 c-4 -6 -5 -12 -2 -15 2 -3 7 2 10 11 7 17 1 20 -8 4z"/>
<path d="M9862 9581 c10 -16 9 -23 -4 -38 -10 -11 -14 -28 -11 -45 3 -17 1
-28 -6 -28 -6 0 -11 6 -11 13 0 6 -11 -11 -24 -39 -13 -28 -29 -55 -35 -58 -6
-4 -11 -23 -11 -42 0 -19 -4 -34 -10 -34 -5 0 -10 -7 -10 -15 0 -14 -13 -20
-34 -16 -10 2 -26 -19 -26 -34 0 -5 4 -3 10 5 5 8 12 11 16 7 4 -3 1 -13 -5
-21 -7 -9 -10 -30 -7 -53 3 -21 3 -30 0 -21 -4 15 -8 16 -18 5 -22 -22 -34
-51 -41 -102 l-7 -50 18 25 c10 14 24 31 32 39 12 12 11 16 -2 23 -13 7 -13
12 -3 22 9 10 14 11 19 2 5 -7 8 -6 8 4 0 8 11 39 25 68 13 28 20 52 15 52 -6
0 -10 -6 -10 -13 0 -20 -29 -56 -30 -37 0 26 41 85 49 71 6 -8 12 -3 21 18 6
16 32 65 56 108 25 42 42 83 40 90 -3 7 -1 23 5 35 8 20 9 19 4 -6 -6 -26 -4
-28 9 -17 9 8 16 20 16 27 0 8 3 14 8 14 15 0 34 42 23 51 -6 5 -9 6 -6 2 6
-8 -25 -43 -38 -43 -6 0 -2 10 9 21 19 21 19 22 -3 15 -14 -5 -23 -3 -23 3 0
6 -5 11 -10 11 -6 0 -5 -8 2 -19z m-52 -176 c0 -8 -4 -15 -10 -15 -5 0 -7 7
-4 15 4 8 8 15 10 15 2 0 4 -7 4 -15z m-27 -65 c-3 -12 -8 -19 -11 -16 -5 6 5
36 12 36 2 0 2 -9 -1 -20z"/>
<path d="M12741 9584 c0 -11 3 -14 6 -6 3 7 2 16 -1 19 -3 4 -6 -2 -5 -13z"/>
<path d="M8766 9564 c-4 -14 -5 -29 -2 -31 3 -3 8 7 12 21 3 15 4 29 1 32 -2
3 -8 -7 -11 -22z"/>
<path d="M12732 9525 c0 -16 2 -22 5 -12 2 9 2 23 0 30 -3 6 -5 -1 -5 -18z"/>
<path d="M8771 9504 c0 -11 3 -14 6 -6 3 7 2 16 -1 19 -3 4 -6 -2 -5 -13z"/>
<path d="M12647 9513 c-4 -3 -7 -21 -7 -40 0 -23 -5 -33 -15 -33 -11 0 -15
-11 -15 -39 0 -22 -4 -41 -9 -43 -5 -1 -11 -27 -13 -57 -2 -32 -8 -56 -15 -59
-8 -2 -13 5 -13 16 0 14 -9 21 -31 26 -49 10 -50 9 -47 -41 2 -32 7 -47 16
-45 19 3 14 -16 -5 -21 -15 -4 -15 -5 -2 -6 25 -2 22 -51 -3 -51 -13 0 -18 6
-17 23 4 41 -1 57 -16 57 -19 0 -21 -66 -2 -73 7 -3 5 -6 -5 -6 -16 -1 -18
-12 -18 -81 0 -48 -4 -80 -10 -80 -6 0 -3 -11 6 -25 12 -19 18 -22 29 -12 7 6
10 18 8 24 -3 7 2 13 10 13 19 0 30 30 21 56 -5 16 -4 16 5 4 10 -13 12 -13
21 0 5 9 5 19 0 24 -5 5 0 17 11 30 16 17 22 18 28 7 7 -11 10 -9 16 8 3 12 9
19 13 17 4 -2 7 13 7 34 1 21 -3 36 -7 34 -4 -3 -8 -17 -8 -32 0 -15 -4 -33
-9 -41 -5 -8 -8 1 -6 25 4 58 14 76 39 69 11 -4 16 -3 11 2 -14 11 -13 23 6
64 10 19 25 75 34 124 9 50 21 93 26 96 6 3 7 13 3 22 -6 17 -25 22 -37 10z"/>
<path d="M9680 9424 c0 -14 3 -14 15 -4 8 7 15 14 15 16 0 2 -7 4 -15 4 -8 0
-15 -7 -15 -16z"/>
<path d="M8766 9365 c-3 -9 -6 -22 -5 -28 0 -7 5 -1 10 12 5 13 8 26 5 28 -2
2 -6 -3 -10 -12z"/>
<path d="M12370 9320 c0 -29 4 -40 15 -40 11 0 15 11 15 40 0 29 -4 40 -15 40
-11 0 -15 -11 -15 -40z"/>
<path d="M12657 9353 c-4 -3 -7 -24 -7 -46 0 -52 11 -41 14 12 1 23 2 41 1 41
-1 0 -5 -3 -8 -7z"/>
<path d="M12670 9335 c0 -5 5 -17 10 -25 5 -8 10 -10 10 -5 0 6 -5 17 -10 25
-5 8 -10 11 -10 5z"/>
<path d="M8743 9313 c-18 -7 -16 -33 2 -33 8 0 15 9 15 20 0 11 -1 20 -2 19
-2 0 -9 -3 -15 -6z"/>
<path d="M8700 9220 c0 -5 5 -10 10 -10 6 0 10 5 10 10 0 6 -4 10 -10 10 -5 0
-10 -4 -10 -10z"/>
<path d="M7960 9180 c0 -11 5 -20 10 -20 6 0 10 -9 10 -20 0 -11 5 -20 10 -20
6 0 10 6 10 14 0 8 3 23 6 33 4 14 4 15 -4 4 -8 -11 -11 -9 -17 8 -8 27 -25
27 -25 1z"/>
<path d="M8622 9150 c-10 -16 -10 -20 2 -20 7 0 16 9 19 20 3 11 2 20 -2 20
-3 0 -12 -9 -19 -20z"/>
<path d="M8040 9141 c0 -6 4 -13 10 -16 6 -3 7 1 4 9 -7 18 -14 21 -14 7z"/>
<path d="M8563 9105 c-7 -8 -10 -22 -6 -32 6 -17 5 -17 -15 1 -12 11 -25 16
-29 12 -4 -4 -1 -11 7 -16 13 -8 13 -10 0 -10 -9 0 -22 6 -29 13 -11 10 -13 9
-8 -5 4 -11 2 -15 -7 -12 -7 3 -13 -2 -13 -11 0 -8 4 -15 9 -15 13 0 9 -27 -5
-33 -8 -3 -45 -4 -83 -2 l-69 3 45 -13 45 -12 -73 -8 -73 -8 21 -22 c19 -20
28 -21 103 -17 49 2 86 9 92 17 7 8 9 -10 7 -61 -4 -63 -2 -74 12 -74 12 0 16
10 16 40 0 22 5 40 10 40 6 0 10 -18 10 -40 0 -29 4 -40 15 -40 12 0 15 15 15
75 0 75 0 75 -27 76 -16 0 -22 3 -15 6 6 2 12 18 12 34 0 17 4 28 9 25 4 -3 6
-17 3 -32 -4 -23 -2 -25 24 -22 18 2 33 11 39 26 5 12 16 22 24 22 11 0 9 6
-7 20 -24 23 -37 26 -26 8 4 -7 3 -10 -1 -5 -12 10 -17 47 -10 66 5 13 8 13
14 2 9 -14 31 -7 31 10 0 14 -54 10 -67 -6z"/>
<path d="M12369 9043 c-1 -43 -1 -81 0 -85 0 -5 -3 -8 -9 -8 -5 0 -10 -5 -10
-11 0 -5 5 -7 10 -4 6 4 10 -7 10 -24 0 -29 -2 -31 -40 -31 l-40 0 0 -40 c0
-39 8 -47 43 -41 10 1 9 -17 -3 -40 -6 -10 -7 -19 -3 -19 5 0 14 14 22 31 8
19 18 28 27 25 11 -4 14 5 14 40 0 30 4 43 11 38 6 -3 8 -18 5 -33 -5 -22 -5
-23 5 -8 6 10 8 25 5 33 -3 8 -1 14 4 14 6 0 10 5 10 10 0 6 -7 10 -15 10 -12
0 -15 19 -15 110 0 91 -3 110 -15 110 -12 0 -15 -16 -16 -77z"/>
<path d="M8642 8880 c-3 -140 -2 -160 12 -160 12 0 16 10 16 40 0 22 5 40 10
40 6 0 10 18 10 40 0 22 -4 40 -10 40 -6 0 -10 33 -10 80 0 57 -4 80 -12 80
-10 0 -14 -40 -16 -160z"/>
<path d="M9617 8975 c3 -38 7 -72 9 -74 8 -8 2 95 -6 119 -5 15 -6 -2 -3 -45z"/>
<path d="M8385 9010 c-3 -5 -1 -10 4 -10 6 0 11 5 11 10 0 6 -2 10 -4 10 -3 0
-8 -4 -11 -10z"/>
<path d="M8140 9000 c0 -5 5 -10 10 -10 6 0 10 5 10 10 0 6 -4 10 -10 10 -5 0
-10 -4 -10 -10z"/>
<path d="M12515 8984 c-9 -15 -12 -23 -6 -20 11 7 35 46 28 46 -3 0 -12 -12
-22 -26z"/>
<path d="M8217 8979 c7 -7 15 -10 18 -7 3 3 -2 9 -12 12 -14 6 -15 5 -6 -5z"/>
<path d="M8160 8976 c0 -2 7 -7 16 -10 8 -3 12 -2 9 4 -6 10 -25 14 -25 6z"/>
<path d="M9520 8934 c0 -14 4 -23 10 -19 6 3 10 15 10 26 0 10 -4 19 -10 19
-5 0 -10 -12 -10 -26z"/>
<path d="M9592 8910 c-6 -22 -12 -74 -12 -115 0 -43 -4 -75 -10 -75 -5 0 -10
-18 -10 -40 0 -22 5 -40 10 -40 6 0 10 -33 10 -80 0 -47 -4 -80 -10 -80 -15 0
-12 -17 7 -35 16 -16 17 -16 24 4 5 11 7 99 5 196 -2 115 0 173 7 168 6 -4 7
6 3 28 -4 19 -7 51 -6 72 0 20 -1 37 -2 37 -2 0 -9 -18 -16 -40z"/>
<path d="M8720 8840 c0 -29 4 -40 15 -40 11 0 15 11 15 40 0 29 -4 40 -15 40
-11 0 -15 -11 -15 -40z"/>
<path d="M9523 8840 c0 -25 2 -35 4 -22 2 12 2 32 0 45 -2 12 -4 2 -4 -23z"/>
<path d="M10845 8790 c3 -5 8 -10 11 -10 2 0 4 5 4 10 0 6 -5 10 -11 10 -5 0
-7 -4 -4 -10z"/>
<path d="M7497 8701 c-4 -17 -3 -21 5 -13 5 5 8 16 6 23 -3 8 -7 3 -11 -10z"/>
<path d="M9230 8680 c0 -22 5 -40 10 -40 6 0 10 18 10 40 0 22 -4 40 -10 40
-5 0 -10 -18 -10 -40z"/>
<path d="M12270 8710 c0 -5 4 -10 9 -10 6 0 13 5 16 10 3 6 -1 10 -9 10 -9 0
-16 -4 -16 -10z"/>
<path d="M7496 8643 c-6 -14 -5 -15 5 -6 7 7 10 15 7 18 -3 3 -9 -2 -12 -12z"/>
<path d="M12246 8628 c5 -21 2 -28 -9 -28 -8 0 -17 9 -20 20 -6 23 -37 28 -37
6 0 -8 6 -21 13 -28 7 -7 13 -24 14 -37 1 -13 4 -25 6 -27 8 -8 37 8 36 20 -1
6 -1 20 1 31 l1 20 8 -20 c6 -14 8 -8 7 23 0 24 -2 38 -5 31 -2 -8 -6 -7 -13
2 -5 9 -6 5 -2 -13z"/>
<path d="M8960 8600 c0 -5 5 -10 10 -10 6 0 10 5 10 10 0 6 -4 10 -10 10 -5 0
-10 -4 -10 -10z"/>
<path d="M9060 8600 c0 -5 5 -10 10 -10 6 0 10 5 10 10 0 6 -4 10 -10 10 -5 0
-10 -4 -10 -10z"/>
<path d="M9097 8558 c1 -29 -2 -47 -6 -40 -12 20 -43 -104 -49 -195 -7 -120
22 -203 100 -295 69 -79 104 -106 120 -90 5 5 7 16 2 23 -6 10 -9 8 -14 -5 -5
-16 -7 -16 -25 4 -19 21 -19 21 1 15 10 -3 7 1 -9 8 -15 7 -24 17 -20 22 5 4
0 5 -11 1 -15 -5 -17 -2 -13 15 4 15 2 19 -8 15 -8 -3 -17 -1 -20 4 -4 6 -1
10 4 10 15 0 14 18 -1 23 -7 2 -1 3 14 1 26 -3 26 -2 16 26 -5 17 -14 27 -19
24 -5 -3 -19 -2 -30 1 -16 6 -19 12 -15 33 5 20 4 23 -4 12 -8 -12 -10 -9 -10
14 0 20 -4 27 -15 23 -11 -5 -12 -1 -5 17 12 33 15 91 5 91 -6 0 -10 -17 -9
-37 0 -21 -3 -38 -8 -38 -11 0 -10 93 2 125 5 14 14 24 19 21 10 -6 31 38 30
62 0 9 -5 2 -10 -17 -14 -47 -20 -34 -12 25 3 27 8 43 11 36 7 -23 19 -12 19
21 1 24 -1 27 -6 12 -7 -17 -8 -16 -13 8 -3 15 -2 30 2 32 5 3 6 14 3 25 -10
37 -19 20 -16 -32z m-10 -80 c-3 -8 -6 -5 -6 6 -1 11 2 17 5 13 3 -3 4 -12 1
-19z m-10 -60 c-3 -8 -6 -5 -6 6 -1 11 2 17 5 13 3 -3 4 -12 1 -19z m12 -283
c0 -5 -4 -3 -9 5 -5 8 -9 22 -9 30 0 16 17 -16 18 -35z"/>
<path d="M10945 8600 c-3 -5 -1 -10 4 -10 6 0 11 5 11 10 0 6 -2 10 -4 10 -3
0 -8 -4 -11 -10z"/>
<path d="M8995 8590 c-11 -17 5 -32 21 -19 8 6 14 15 14 20 0 12 -27 11 -35
-1z"/>
<path d="M7500 8570 c-13 -8 -12 -10 3 -10 9 0 17 5 17 10 0 12 -1 12 -20 0z"/>
<path d="M8962 8558 c2 -6 10 -13 16 -14 7 -1 8 0 2 3 -5 2 -8 9 -4 14 3 5 0
9 -6 9 -7 0 -10 -5 -8 -12z"/>
<path d="M12156 8562 c-2 -4 -1 -14 5 -22 7 -12 9 -10 9 8 0 23 -5 28 -14 14z"/>
<path d="M8911 8539 c-13 -11 -21 -22 -18 -25 3 -3 18 6 34 20 32 30 19 35
-16 5z"/>
<path d="M7512 8530 c0 -14 2 -19 5 -12 2 6 2 18 0 25 -3 6 -5 1 -5 -13z"/>
<path d="M13050 8531 c0 -6 4 -13 10 -16 6 -3 7 1 4 9 -7 18 -14 21 -14 7z"/>
<path d="M8906 8490 c-21 -22 -37 -42 -35 -44 2 -3 23 16 47 40 23 24 39 44
34 44 -4 0 -25 -18 -46 -40z"/>
<path d="M11025 8500 c-3 -5 -1 -10 4 -10 6 0 11 5 11 10 0 6 -2 10 -4 10 -3
0 -8 -4 -11 -10z"/>
<path d="M12180 8496 c0 -18 28 -41 38 -31 4 4 1 10 -5 12 -7 3 -13 11 -13 19
0 8 -4 14 -10 14 -5 0 -10 -6 -10 -14z"/>
<path d="M13027 8467 c3 -15 9 -27 14 -27 13 0 11 13 -5 35 -13 18 -14 18 -9
-8z"/>
<path d="M9606 8438 c-9 -34 -7 -45 5 -28 7 11 8 4 3 -25 -4 -22 -9 -43 -11
-47 -10 -18 -22 -6 -26 25 l-4 32 0 -35 c-2 -104 -4 -120 -13 -120 -5 0 -10
18 -10 40 0 29 -4 40 -15 40 -12 0 -15 -16 -15 -80 0 -64 -3 -80 -15 -80 -8 0
-15 -9 -15 -20 0 -11 -4 -20 -10 -20 -5 0 -10 -9 -10 -20 0 -13 7 -20 20 -20
17 0 20 -7 21 -42 1 -28 3 -34 6 -18 6 32 31 60 55 60 11 0 18 7 18 20 0 16
-7 20 -35 20 -28 0 -35 4 -35 19 0 15 9 20 40 23 38 3 40 2 40 -25 0 -25 2
-28 15 -17 9 7 18 10 22 6 17 -17 17 -117 0 -129 -9 -7 -9 -10 1 -14 10 -4 10
-8 1 -19 -6 -8 -16 -14 -21 -14 -6 0 -6 5 1 14 8 10 8 16 -2 25 -11 8 -14 5
-14 -19 0 -17 6 -30 12 -30 16 0 47 35 39 43 -4 4 0 9 9 13 39 15 44 129 11
254 -8 30 -17 64 -19 75 -28 126 -39 150 -49 113z m30 -114 c-4 -18 -13 -46
-21 -61 -20 -37 -19 -64 0 -57 9 4 15 0 15 -9 0 -22 -16 -29 -29 -13 -16 20 0
142 18 138 10 -2 12 4 7 23 -5 19 -3 25 4 20 7 -5 9 -20 6 -41z m-9 -76 c-3
-8 -6 -5 -6 6 -1 11 2 17 5 13 3 -3 4 -12 1 -19z m30 -80 c-3 -8 -6 -5 -6 6
-1 11 2 17 5 13 3 -3 4 -12 1 -19z"/>
<path d="M9611 8304 c0 -11 3 -14 6 -6 3 7 2 16 -1 19 -3 4 -6 -2 -5 -13z"/>
<path d="M8850 8431 c0 -8 -8 -10 -22 -7 -13 3 -17 3 -10 0 14 -7 17 -34 3
-34 -5 0 -12 6 -15 13 -3 6 -3 2 -1 -10 4 -14 -1 -26 -13 -35 -10 -7 -21 -21
-25 -32 -6 -16 -10 -16 -25 -5 -9 7 -14 9 -10 5 4 -5 3 -15 -3 -23 -8 -8 -8
-13 -1 -13 6 0 13 6 16 13 3 6 3 -1 0 -18 -5 -25 1 -20 35 30 23 33 51 72 63
87 12 15 19 31 15 35 -4 3 -7 1 -7 -6z"/>
<path d="M12161 8414 c0 -11 3 -14 6 -6 3 7 2 16 -1 19 -3 4 -6 -2 -5 -13z"/>
<path d="M8770 8385 c-11 -13 -10 -14 4 -9 9 3 16 10 16 15 0 13 -6 11 -20 -6z"/>
<path d="M13070 8390 c0 -5 5 -10 10 -10 6 0 10 5 10 10 0 6 -4 10 -10 10 -5
0 -10 -4 -10 -10z"/>
<path d="M12186 8364 c-3 -9 -6 -28 -6 -44 0 -16 -7 -35 -15 -43 -20 -21 -15
-77 8 -77 10 0 17 -8 17 -19 0 -11 9 -22 20 -26 22 -7 40 0 40 16 0 6 -4 8 -9
5 -5 -3 -9 0 -8 7 1 29 -3 50 -9 44 -3 -3 -12 0 -19 6 -10 10 -10 17 2 41 9
18 12 41 8 62 -7 38 -20 51 -29 28z"/>
<path d="M13026 8348 c-3 -13 -2 -26 2 -30 4 -4 8 6 9 23 3 35 -2 38 -11 7z"/>
<path d="M11023 8348 c-15 -19 -8 -97 12 -143 10 -22 19 -51 21 -64 1 -13 6
-26 10 -30 4 -3 4 7 0 22 -4 19 -3 26 4 22 5 -3 10 0 10 9 0 8 3 23 7 33 6 15
4 16 -9 5 -25 -20 -48 24 -41 77 4 29 2 41 -7 41 -10 0 -10 3 0 15 7 9 11 18
8 20 -3 3 -10 0 -15 -7z"/>
<path d="M8703 8250 c5 -21 -12 -70 -25 -70 -13 0 -9 18 7 34 17 16 19 26 7
26 -13 0 -32 -48 -26 -65 9 -23 18 -18 39 21 26 48 29 74 9 74 -11 0 -15 -6
-11 -20z"/>
<path d="M13126 8255 c4 -8 8 -15 10 -15 2 0 4 7 4 15 0 8 -4 15 -10 15 -5 0
-7 -7 -4 -15z"/>
<path d="M12244 8227 c-2 -7 2 -27 11 -43 9 -18 15 -23 15 -12 0 9 -5 20 -11
24 -6 3 -9 15 -6 25 6 22 -1 26 -9 6z"/>
<path d="M12935 8220 c-3 -5 -1 -10 4 -10 6 0 11 5 11 10 0 6 -2 10 -4 10 -3
0 -8 -4 -11 -10z"/>
<path d="M12937 8180 c-9 -11 -13 -20 -7 -20 5 0 14 9 20 20 6 11 9 20 8 20
-2 0 -11 -9 -21 -20z"/>
<path d="M12980 8180 c0 -11 5 -20 10 -20 6 0 10 9 10 20 0 11 -4 20 -10 20
-5 0 -10 -9 -10 -20z"/>
<path d="M13136 8164 c-4 -14 -5 -28 -3 -31 3 -2 8 8 11 23 4 14 5 28 3 31 -3
2 -8 -8 -11 -23z"/>
<path d="M8657 8139 c3 -10 9 -16 14 -13 13 8 11 21 -5 27 -10 4 -12 0 -9 -14z"/>
<path d="M11087 8127 c-17 -34 -13 -66 14 -137 12 -32 16 -80 25 -260 8 -178
-5 -255 -77 -444 -75 -197 -69 -232 42 -222 55 4 130 35 194 80 16 11 31 22
33 23 2 1 -4 13 -13 27 -13 20 -19 23 -30 13 -7 -7 -11 -14 -9 -16 12 -12 -52
-29 -98 -26 -43 3 -47 2 -24 -5 16 -5 33 -7 38 -4 4 3 8 -2 8 -11 0 -9 5 -13
10 -10 6 3 10 0 10 -8 0 -10 -13 -13 -44 -13 -27 1 -42 -3 -39 -9 3 -5 0 -4
-8 3 -7 6 -24 12 -38 11 l-26 -1 25 -8 c23 -7 23 -8 3 -9 -12 -1 -28 2 -37 5
-14 5 -14 9 0 36 9 17 17 42 19 57 2 14 4 28 4 31 1 3 5 -1 10 -9 8 -12 15
-13 34 -4 20 10 26 9 31 -3 3 -8 12 -14 21 -14 14 0 14 3 -2 25 -13 18 -24 24
-40 20 -24 -6 -33 18 -12 30 5 4 9 17 8 28 -3 42 1 63 9 50 9 -14 37 50 35 80
0 12 3 15 9 9 20 -20 38 -1 38 39 0 21 -4 39 -9 39 -5 0 -12 10 -14 23 -2 12
-2 1 0 -25 3 -28 1 -48 -5 -48 -5 0 -13 56 -17 126 -7 131 -1 178 10 77 10
-90 13 -86 12 14 -2 74 -4 89 -15 80 -11 -8 -12 -1 -6 40 4 33 2 53 -5 57 -6
4 -11 1 -12 -6 -1 -7 -4 -2 -9 12 -4 14 -5 46 -2 72 3 34 0 51 -11 62 -10 10
-14 29 -12 53 2 32 2 33 -4 8 -4 -19 -9 -26 -14 -18 -4 6 -3 33 3 59 13 57 8
66 -13 21z m60 -399 c-3 -7 -5 -2 -5 12 0 14 2 19 5 13 2 -7 2 -19 0 -25z m6
-108 c3 -34 2 -47 -3 -35 -8 19 -14 103 -6 94 2 -2 6 -29 9 -59z m-67 -305
c-9 -9 -16 -13 -16 -8 0 12 22 34 28 28 2 -2 -3 -11 -12 -20z m184 -155 c0 -5
-2 -10 -4 -10 -2 0 -12 -3 -22 -7 -16 -6 -17 -5 -4 10 17 19 30 22 30 7z
m-115 -70 c-11 -5 -27 -9 -35 -9 -9 0 -8 4 5 9 11 5 27 9 35 9 9 0 8 -4 -5 -9z
m-68 -16 c-3 -3 -12 -4 -19 -1 -8 3 -5 6 6 6 11 1 17 -2 13 -5z"/>
<path d="M11890 8120 c0 -29 4 -40 15 -40 11 0 15 11 15 40 0 29 -4 40 -15 40
-11 0 -15 -11 -15 -40z"/>
<path d="M13070 8080 c0 -47 4 -80 10 -80 6 0 10 18 10 40 0 22 5 40 10 40 6
0 10 18 10 40 0 33 -3 40 -20 40 -18 0 -20 -7 -20 -80z"/>
<path d="M7468 8080 c-3 -41 -2 -76 3 -78 11 -5 12 -82 1 -82 -9 0 -8 -20 4
-107 4 -29 11 -53 15 -53 5 0 9 -27 9 -60 0 -32 5 -82 11 -110 8 -38 8 -55 0
-63 -6 -6 -11 -18 -11 -26 1 -13 2 -13 11 2 5 9 17 17 24 17 13 0 15 27 15
160 0 100 -4 160 -10 160 -5 0 -10 -13 -10 -30 0 -16 -4 -30 -9 -30 -12 0 -25
54 -13 58 6 2 4 22 -4 50 -7 26 -17 97 -21 157 l-9 110 -6 -75z m49 -442 c-3
-8 -6 -5 -6 6 -1 11 2 17 5 13 3 -3 4 -12 1 -19z"/>
<path d="M12240 8131 c0 -11 9 -23 21 -26 28 -9 33 -1 17 24 -16 26 -38 27
-38 2z"/>
<path d="M8634 8126 c-22 -24 -34 -55 -24 -61 6 -3 8 -18 4 -33 -4 -23 -4 -24
6 -9 6 9 8 26 5 37 -5 16 -3 19 12 13 10 -3 15 -3 11 2 -4 4 -4 13 1 19 5 6 6
18 2 27 -5 13 -9 14 -17 5z"/>
<path d="M11760 8115 c0 -8 4 -15 10 -15 5 0 7 7 4 15 -4 8 -8 15 -10 15 -2 0
-4 -7 -4 -15z"/>
<path d="M13141 8094 c0 -11 3 -14 6 -6 3 7 2 16 -1 19 -3 4 -6 -2 -5 -13z"/>
<path d="M12847 8093 c-3 -5 6 -9 20 -10 19 -1 22 1 12 8 -17 11 -26 11 -32 2z"/>
<path d="M11821 8081 c-10 -6 -10 -10 -1 -16 13 -8 24 -1 19 14 -3 6 -10 7
-18 2z"/>
<path d="M13123 8045 c0 -27 2 -38 4 -22 2 15 2 37 0 50 -2 12 -4 0 -4 -28z"/>
<path d="M8570 8070 c0 -5 5 -21 12 -35 13 -28 3 -47 -13 -25 -9 12 -9 11 -4
-5 15 -43 17 -55 8 -55 -12 0 -11 -66 1 -77 5 -4 6 5 2 20 -5 21 -4 27 5 21 7
-4 9 -3 5 4 -3 6 -2 30 3 52 10 45 4 110 -10 110 -5 0 -9 -4 -9 -10z"/>
<path d="M9443 8040 c0 -25 2 -35 4 -22 2 12 2 32 0 45 -2 12 -4 2 -4 -23z"/>
<path d="M11792 8024 c-1 -19 4 -27 18 -31 23 -6 26 -19 8 -26 -10 -4 -10 -6
-1 -6 23 -2 24 20 3 54 -12 19 -23 35 -24 35 -1 0 -3 -12 -4 -26z"/>
<path d="M11692 8020 c0 -14 2 -19 5 -12 2 6 2 18 0 25 -3 6 -5 1 -5 -13z"/>
<path d="M12780 8030 c-13 -9 -13 -11 0 -20 20 -13 40 -13 40 1 0 6 -7 8 -16
5 -12 -4 -15 -2 -10 9 6 18 6 18 -14 5z"/>
<path d="M12405 8020 c3 -4 16 -10 30 -12 13 -3 22 -2 20 2 -3 4 -16 10 -30
12 -13 3 -22 2 -20 -2z"/>
<path d="M8603 7985 c-3 -9 -3 -18 -1 -21 3 -3 8 4 11 16 6 23 -1 27 -10 5z"/>
<path d="M11903 7980 c-1 -11 2 -18 8 -15 11 7 12 35 1 35 -4 0 -8 -9 -9 -20z"/>
<path d="M13020 7960 c0 -22 5 -40 10 -40 6 0 10 18 10 40 0 22 -4 40 -10 40
-5 0 -10 -18 -10 -40z"/>
<path d="M9563 7944 c-30 -28 -29 -36 5 -28 35 9 34 8 25 30 -8 18 -9 18 -30
-2z"/>
<path d="M11840 7940 c20 -13 33 -13 25 0 -3 6 -14 10 -23 10 -15 0 -15 -2 -2
-10z"/>
<path d="M13133 7943 c-18 -7 -16 -23 2 -23 8 0 15 7 15 15 0 8 -1 15 -2 14
-2 0 -9 -3 -15 -6z"/>
<path d="M12480 7930 c0 -6 7 -10 15 -10 8 0 15 2 15 4 0 2 -7 6 -15 10 -8 3
-15 1 -15 -4z"/>
<path d="M11860 7905 c11 -13 15 -13 23 -3 6 9 7 8 3 -5 -9 -26 12 -63 27 -48
9 9 8 14 -3 21 -13 8 -13 11 -1 19 21 13 4 31 -31 31 -26 0 -29 -2 -18 -15z"/>
<path d="M13050 7912 c0 -5 7 -17 15 -28 15 -19 15 -19 30 0 22 29 19 36 -15
36 -16 0 -30 -4 -30 -8z"/>
<path d="M9460 7900 l-25 -8 25 0 c14 0 36 4 50 8 l25 8 -25 0 c-14 0 -36 -4
-50 -8z"/>
<path d="M8510 7824 c0 -8 5 -12 10 -9 6 3 10 10 10 16 0 5 -4 9 -10 9 -5 0
-10 -7 -10 -16z"/>
<path d="M8550 7829 c0 -5 5 -7 10 -4 6 3 10 8 10 11 0 2 -4 4 -10 4 -5 0 -10
-5 -10 -11z"/>
<path d="M11681 7824 c0 -11 3 -14 6 -6 3 7 2 16 -1 19 -3 4 -6 -2 -5 -13z"/>
<path d="M11938 7822 c-3 -11 0 -32 7 -48 13 -29 13 -28 12 19 -1 48 -11 62
-19 29z"/>
<path d="M12850 7800 c0 -29 4 -40 15 -40 11 0 15 11 15 40 0 29 -4 40 -15 40
-11 0 -15 -11 -15 -40z"/>
<path d="M12910 7800 c0 -22 5 -40 10 -40 6 0 10 18 10 40 0 22 -4 40 -10 40
-5 0 -10 -18 -10 -40z"/>
<path d="M11702 7780 c0 -19 2 -27 5 -17 2 9 2 25 0 35 -3 9 -5 1 -5 -18z"/>
<path d="M8497 7773 c-11 -11 -8 -25 4 -17 9 5 10 -14 4 -71 -5 -54 -4 -75 4
-71 6 4 8 21 5 39 -4 27 -3 29 6 12 9 -18 10 -17 5 5 -2 14 -5 44 -5 68 0 39
-8 51 -23 35z"/>
<path d="M7461 7710 l2 -55 7 45 c4 25 4 49 -1 55 -5 5 -8 -13 -8 -45z"/>
<path d="M11971 7741 c-6 -11 -7 -22 -2 -25 5 -3 11 4 14 16 8 30 1 35 -12 9z"/>
<path d="M8481 7714 c0 -11 3 -14 6 -6 3 7 2 16 -1 19 -3 4 -6 -2 -5 -13z"/>
<path d="M11645 7666 c-28 -59 -30 -62 -36 -37 -5 19 -7 15 -6 -17 0 -24 -4
-47 -9 -50 -11 -8 -38 -53 -62 -102 -9 -19 -25 -44 -35 -55 -10 -11 -23 -29
-29 -39 -8 -16 -7 -18 5 -13 11 4 14 2 10 -9 -5 -13 -8 -13 -24 2 -11 10 -22
14 -27 10 -4 -4 1 -13 11 -20 20 -15 22 -28 5 -25 -31 4 -48 -2 -48 -16 0 -8
-6 -15 -14 -15 -8 0 -17 -7 -20 -16 -9 -24 -7 -31 5 -11 5 9 15 17 21 17 6 0
3 -9 -6 -19 -10 -11 -23 -17 -30 -15 -18 7 -39 -23 -32 -43 6 -14 25 0 99 77
104 106 200 245 191 273 -3 10 1 29 10 42 9 13 16 32 16 42 0 10 9 26 20 36
11 9 20 28 20 42 0 14 -1 25 -2 25 -2 -1 -16 -29 -33 -64z m-69 -178 c-9 -12
-16 -17 -16 -10 0 14 23 42 29 37 1 -2 -4 -14 -13 -27z m-44 -80 c-7 -7 -12
-8 -12 -2 0 14 12 26 19 19 2 -3 -1 -11 -7 -17z"/>
<path d="M11990 7716 c0 -8 -3 -21 -6 -30 -3 -9 -2 -16 3 -16 5 0 10 14 11 30
1 17 0 30 -3 30 -3 0 -5 -6 -5 -14z"/>
<path d="M7482 7655 c0 -16 2 -22 5 -12 2 9 2 23 0 30 -3 6 -5 -1 -5 -18z"/>
<path d="M11658 7645 c-3 -6 -8 -23 -12 -40 -4 -16 -12 -33 -18 -36 -6 -4 -8
-13 -5 -20 5 -16 50 78 44 95 -2 6 -6 6 -9 1z"/>
<path d="M8481 7624 c0 -11 3 -14 6 -6 3 7 2 16 -1 19 -3 4 -6 -2 -5 -13z"/>
<path d="M7486 7605 c-3 -9 1 -26 9 -38 15 -21 15 -21 9 13 -8 43 -10 45 -18
25z"/>
<path d="M8492 7568 c-1 -20 -5 -45 -8 -55 -5 -17 -5 -17 6 0 6 9 9 34 7 55
l-4 37 -1 -37z"/>
<path d="M11310 7560 c0 -22 5 -40 10 -40 6 0 10 18 10 40 0 22 -4 40 -10 40
-5 0 -10 -18 -10 -40z"/>
<path d="M12011 7584 c0 -11 3 -14 6 -6 3 7 2 16 -1 19 -3 4 -6 -2 -5 -13z"/>
<path d="M12042 7580 c0 -14 2 -19 5 -12 2 6 2 18 0 25 -3 6 -5 1 -5 -13z"/>
<path d="M11276 7456 c2 -32 4 -67 4 -77 0 -11 7 -19 15 -19 11 0 15 11 15 40
0 28 -4 40 -14 40 -10 0 -16 13 -19 38 -2 20 -3 10 -1 -22z"/>
<path d="M12061 7510 c0 -8 4 -24 9 -35 5 -13 9 -14 9 -5 0 8 -4 24 -9 35 -5
13 -9 14 -9 5z"/>
<path d="M12044 7470 c22 -142 26 -246 15 -347 -15 -143 -58 -315 -100 -395
-5 -10 -6 -25 -2 -34 4 -12 3 -15 -5 -10 -7 4 -12 2 -12 -3 0 -6 -13 -37 -28
-69 -36 -74 -44 -94 -33 -88 4 3 13 -6 19 -19 7 -15 8 -25 2 -25 -6 0 -10 6
-10 13 0 8 -7 14 -15 14 -9 0 -14 -6 -11 -14 3 -8 2 -12 -3 -8 -5 3 -24 -20
-42 -51 -41 -72 -166 -240 -207 -278 -17 -17 -28 -35 -25 -40 4 -6 3 -8 -2 -4
-4 4 -44 -27 -89 -69 -45 -42 -108 -99 -141 -126 -68 -56 -87 -74 -66 -62 10
5 12 4 7 -4 -4 -6 -11 -9 -16 -6 -4 3 -21 -5 -37 -18 -15 -13 -70 -52 -121
-86 -53 -36 -89 -67 -86 -73 4 -6 2 -8 -4 -5 -13 9 -234 -127 -224 -138 4 -5
2 -5 -5 -2 -14 9 -96 -37 -86 -48 5 -4 3 -5 -4 -2 -6 4 -33 -4 -60 -17 -27
-14 -61 -29 -76 -35 -15 -6 -26 -16 -25 -22 2 -6 -4 -14 -12 -16 -13 -4 -13
-3 0 6 35 25 -14 8 -86 -29 -71 -37 -82 -54 -19 -30 19 7 24 7 19 -1 -5 -9 1
-10 22 -4 16 4 52 9 79 11 28 2 73 8 101 15 44 10 51 15 48 33 -2 11 -2 15 2
9 11 -25 94 -13 94 13 0 16 12 18 26 4 12 -12 69 -14 108 -4 22 5 27 4 21 -6
-5 -9 -4 -11 4 -6 6 4 9 11 6 16 -3 4 1 11 7 14 7 3 -5 3 -27 0 -22 -3 -46
-10 -52 -16 -9 -7 -13 -7 -13 0 0 14 18 20 127 37 106 17 113 20 113 41 0 8 9
14 20 14 13 0 18 -5 14 -15 -5 -12 0 -14 22 -11 16 2 40 8 53 12 23 7 24 8 5
16 -13 5 -9 6 13 2 18 -3 38 -2 45 3 7 4 22 9 33 10 36 3 125 40 117 48 -4 5
1 5 10 2 18 -6 76 17 61 25 -4 3 -2 3 6 1 8 -2 25 4 38 13 14 8 31 13 39 10 8
-3 13 -2 10 3 -10 16 23 34 54 28 17 -4 32 -2 36 5 4 7 3 8 -4 4 -7 -4 -12 -2
-12 5 0 7 8 9 21 6 12 -3 18 -3 15 0 -7 7 33 43 47 43 5 0 7 7 4 14 -4 10 -1
13 8 10 16 -7 55 13 72 35 6 9 15 13 19 9 4 -4 19 1 34 12 15 11 30 16 34 12
4 -4 6 0 4 8 -1 8 7 19 19 24 12 6 28 23 34 39 11 25 13 26 29 12 21 -19 36
-20 20 0 -16 19 -4 35 26 35 14 0 24 6 24 14 0 8 7 17 16 20 24 9 28 7 14 -9
-19 -23 -8 -25 14 -4 11 11 14 19 8 19 -7 0 -12 5 -12 10 0 6 6 10 14 10 8 0
23 17 34 38 14 28 25 37 45 37 15 1 29 4 33 8 18 18 25 4 8 -15 l-19 -23 23
20 c21 17 22 21 8 31 -23 16 -20 21 15 28 18 3 42 18 55 32 26 27 32 48 12 41
-7 -2 -12 -10 -10 -17 1 -6 -2 -10 -8 -8 -7 2 -10 8 -9 13 9 37 12 45 20 45 4
0 11 -4 14 -10 3 -5 13 -10 21 -10 17 0 53 38 54 56 0 7 7 15 16 18 13 5 14 9
4 21 -10 12 -9 16 4 21 9 3 23 0 32 -7 13 -11 14 -9 3 14 -11 24 -10 30 11 52
13 14 32 25 42 25 11 0 16 5 13 10 -3 6 -1 10 6 10 9 0 10 3 2 11 -12 12 -6
49 9 49 5 0 6 -9 3 -20 -4 -11 -2 -20 4 -20 6 0 11 7 11 15 0 8 6 15 13 16 6
0 2 4 -10 9 -13 5 -23 16 -23 25 0 8 -4 15 -10 15 -5 0 -10 -7 -10 -15 0 -8
-7 -15 -15 -15 -10 0 -15 -10 -15 -28 0 -17 -9 -34 -25 -46 -14 -10 -25 -27
-25 -37 0 -15 -8 -19 -40 -19 -22 0 -40 5 -40 10 0 6 -18 10 -39 10 -36 0 -40
-3 -44 -27 -3 -20 -4 -15 -6 15 -1 35 -4 42 -21 42 -18 0 -20 -7 -20 -80 0
-64 -3 -80 -15 -80 -9 0 -15 9 -15 25 0 14 -4 25 -9 25 -5 0 -18 -11 -29 -25
-28 -36 -42 -31 -42 15 0 46 -14 51 -42 15 -11 -14 -24 -25 -29 -25 -5 0 -9
11 -9 25 0 14 -4 25 -10 25 -5 0 -10 -18 -10 -40 0 -29 -4 -40 -15 -40 -11 0
-15 -11 -15 -40 0 -29 4 -40 15 -40 19 0 19 -11 1 -35 -12 -16 -16 -17 -30 -6
-11 9 -16 10 -16 2 0 -6 -17 -11 -40 -11 -29 0 -40 -4 -40 -15 0 -8 -4 -15 -9
-15 -12 0 -71 -59 -71 -71 0 -5 7 -9 16 -9 14 0 15 -2 3 -17 -13 -15 -14 -15
-17 0 -2 10 -10 17 -18 17 -10 0 -14 -12 -14 -40 0 -36 -2 -40 -25 -40 -16 0
-25 -6 -25 -15 0 -11 -12 -15 -49 -15 -50 0 -64 -9 -86 -54 -14 -27 -105 -38
-105 -12 0 9 7 16 15 16 19 0 19 11 0 36 -14 18 -14 18 -15 -8 0 -17 -5 -28
-14 -28 -14 0 -30 -55 -20 -71 3 -5 -12 -9 -33 -9 -28 0 -42 -6 -51 -21 -8
-12 -19 -18 -28 -15 -10 4 -14 -2 -14 -19 0 -21 -5 -25 -30 -25 -16 0 -30 -4
-30 -10 0 -5 -4 -10 -10 -10 -5 0 -10 12 -10 26 0 49 -25 19 -28 -34 l-3 -52
-50 0 -49 0 0 -40 c0 -37 -2 -39 -35 -46 -20 -3 -39 -4 -42 0 -4 3 6 6 20 6
22 0 27 5 27 25 0 23 -3 25 -42 24 l-43 -2 35 -7 c34 -7 34 -7 -12 -9 -42 -1
-48 2 -48 20 0 13 4 18 13 13 7 -5 6 0 -3 11 -14 17 -13 18 4 12 16 -6 17 -5
6 8 -7 9 -9 15 -4 13 5 -1 19 3 32 10 12 7 32 10 42 7 15 -5 20 -2 20 13 0 11
6 23 13 26 6 3 2 3 -10 0 -13 -3 -31 0 -40 6 -16 9 -15 10 7 7 14 -2 19 -2 12
0 -7 3 -10 9 -6 14 4 6 11 6 19 -1 20 -17 72 -3 78 21 3 10 13 19 22 19 9 0
15 3 13 8 -2 4 9 19 24 34 30 29 39 17 11 -14 -12 -14 -13 -17 -2 -13 8 3 29
23 48 45 18 22 37 38 41 35 3 -2 7 2 7 10 0 8 -4 12 -8 9 -4 -2 -10 0 -13 5
-4 5 -1 13 5 17 6 4 16 -1 21 -10 9 -17 11 -16 24 2 7 10 26 24 41 31 16 6 33
21 38 33 6 12 19 26 30 32 29 16 35 28 22 45 -10 11 -8 13 8 8 11 -4 27 -2 35
3 12 8 13 13 2 30 -7 12 -8 20 -2 20 5 0 10 -4 10 -9 0 -5 6 -11 13 -14 7 -3
13 3 13 13 0 10 -4 17 -7 14 -4 -2 -10 -1 -13 4 -2 4 10 9 27 10 18 2 40 11
50 22 9 11 12 15 5 10 -7 -6 -21 -10 -32 -10 -19 0 -18 1 4 17 14 10 32 18 40
18 8 0 15 7 15 15 0 8 -6 14 -13 12 -8 -1 -12 3 -9 10 2 7 11 12 20 10 8 -1
26 12 38 30 13 18 32 42 41 53 10 10 16 25 14 32 -3 7 1 10 11 6 12 -5 14 -1
9 18 -3 13 -3 18 0 12 11 -25 25 -13 22 19 -2 21 2 33 12 36 13 5 13 3 1 -11
-9 -11 -10 -17 -2 -17 6 0 11 3 12 8 4 45 21 70 57 83 13 5 20 13 17 19 -8 12
12 85 28 102 19 21 49 79 44 84 -3 3 -8 -4 -12 -15 -3 -12 -10 -21 -15 -21 -5
0 -2 13 6 30 9 16 12 34 9 40 -4 6 -1 9 7 8 8 -2 12 5 10 20 -2 13 2 22 11 22
19 0 52 71 36 80 -8 5 -9 17 -4 36 l8 29 7 -25 c7 -24 7 -23 14 10 3 19 8 53
10 75 3 22 8 67 12 99 5 43 4 57 -4 52 -7 -4 -10 -2 -8 6 3 7 7 63 10 125 5
92 4 114 -9 126 -9 9 -15 34 -15 59 0 24 -5 50 -11 58 -8 11 -9 6 -5 -20z m33
-142 c-3 -7 -5 -2 -5 12 0 14 2 19 5 13 2 -7 2 -19 0 -25z m-10 -305 c-3 -10
-5 -2 -5 17 0 19 2 27 5 18 2 -10 2 -26 0 -35z m-14 -104 c-5 -5 -7 7 -4 29 5
34 6 35 9 8 2 -16 0 -32 -5 -37z m-36 -111 c-3 -8 -6 -5 -6 6 -1 11 2 17 5 13
3 -3 4 -12 1 -19z m-111 -246 c-15 -15 -15 -15 -4 10 7 15 15 23 17 17 2 -6
-4 -18 -13 -27z m-171 -292 c-9 -16 -20 -30 -26 -30 -5 0 0 14 13 30 12 17 23
30 25 30 2 0 -3 -13 -12 -30z m685 1 c0 -6 -4 -13 -10 -16 -17 -11 -11 -25 8
-18 16 6 16 6 0 -10 -15 -15 -19 -15 -45 -2 -27 14 -27 15 -5 15 15 0 26 7 29
20 5 20 23 28 23 11z m-290 -38 c0 -10 -32 -43 -42 -43 -4 0 -8 11 -8 25 0 20
5 25 25 25 14 0 25 -3 25 -7z m-460 -63 c8 -5 11 -10 5 -10 -5 0 -17 5 -25 10
-8 5 -10 10 -5 10 6 0 17 -5 25 -10z m440 -14 c0 -2 -7 -9 -15 -16 -12 -10
-15 -10 -15 4 0 9 7 16 15 16 8 0 15 -2 15 -4z m80 0 c0 -2 -7 -9 -15 -16 -12
-10 -15 -10 -15 4 0 9 7 16 15 16 8 0 15 -2 15 -4z m80 -26 c0 -5 -4 -10 -10
-10 -5 0 -10 5 -10 10 0 6 5 10 10 10 6 0 10 -4 10 -10z m-715 -80 c3 -5 -1
-10 -10 -10 -9 0 -13 5 -10 10 3 6 8 10 10 10 2 0 7 -4 10 -10z m-124 -117
c13 -16 12 -17 -3 -4 -10 7 -18 15 -18 17 0 8 8 3 21 -13z m-106 -72 c3 -5 2
-12 -3 -15 -5 -3 -9 1 -9 9 0 17 3 19 12 6z m585 -31 c0 -5 -10 -15 -22 -21
-23 -12 -23 -12 -4 10 21 23 26 26 26 11z m-745 -100 c-3 -5 -11 -10 -16 -10
-6 0 -7 5 -4 10 3 6 11 10 16 10 6 0 7 -4 4 -10z m-195 -114 c0 -2 -7 -7 -16
-10 -8 -3 -12 -2 -9 4 6 10 25 14 25 6z m317 -22 c-3 -3 -12 -4 -19 -1 -8 3
-5 6 6 6 11 1 17 -2 13 -5z m190 -10 c-3 -3 -12 -4 -19 -1 -8 3 -5 6 6 6 11 1
17 -2 13 -5z m-247 -13 c0 -5 -7 -14 -15 -21 -13 -10 -15 -9 -15 9 0 12 6 21
15 21 8 0 15 -4 15 -9z m-330 -5 c0 -2 -7 -7 -16 -10 -8 -3 -12 -2 -9 4 6 10
25 14 25 6z m60 -33 c0 -9 -6 -7 -18 5 -11 11 -14 20 -8 24 11 7 26 -9 26 -29z
m-35 -3 c13 -5 14 -9 5 -9 -8 0 -24 4 -35 9 -13 5 -14 9 -5 9 8 0 24 -4 35 -9z
m-135 -30 c-8 -5 -19 -10 -25 -10 -5 0 -3 5 5 10 8 5 20 10 25 10 6 0 3 -5 -5
-10z m315 -20 c-3 -5 -19 -10 -36 -10 -16 0 -29 5 -29 10 0 6 16 10 36 10 21
0 33 -4 29 -10z m-345 -20 c-8 -5 -19 -10 -25 -10 -5 0 -3 5 5 10 8 5 20 10
25 10 6 0 3 -5 -5 -10z m-132 -107 c-10 -2 -28 -2 -40 0 -13 2 -5 4 17 4 22 1
32 -1 23 -4z"/>
<path d="M8491 7475 c-1 -11 -4 -31 -6 -45 -5 -22 -4 -22 4 -5 9 18 10 17 11
-10 1 -16 4 -23 6 -15 3 9 0 33 -5 55 -5 22 -10 31 -10 20z"/>
<path d="M7521 7454 c0 -11 3 -14 6 -6 3 7 2 16 -1 19 -3 4 -6 -2 -5 -13z"/>
<path d="M12780 7455 c-10 -12 -10 -15 4 -15 9 0 16 7 16 15 0 8 -2 15 -4 15
-2 0 -9 -7 -16 -15z"/>
<path d="M7550 7431 c0 -5 7 -14 15 -21 13 -10 15 -9 15 9 0 12 -6 21 -15 21
-8 0 -15 -4 -15 -9z"/>
<path d="M12071 7424 c0 -11 3 -14 6 -6 3 7 2 16 -1 19 -3 4 -6 -2 -5 -13z"/>
<path d="M11184 7388 c3 -22 -1 -28 -16 -28 -15 0 -18 -6 -15 -36 5 -44 19
-58 47 -49 17 5 20 12 15 28 -4 12 -8 31 -9 43 -1 11 -6 25 -10 32 -4 7 -2 12
3 12 6 0 11 6 11 13 0 8 -7 14 -15 14 -10 0 -13 -9 -11 -29z"/>
<path d="M13042 7400 c0 -14 2 -19 5 -12 2 6 2 18 0 25 -3 6 -5 1 -5 -13z"/>
<path d="M7551 7344 c0 -11 3 -14 6 -6 3 7 2 16 -1 19 -3 4 -6 -2 -5 -13z"/>
<path d="M7585 7347 c3 -11 8 -30 11 -43 3 -13 10 -24 15 -24 5 0 9 -8 10 -17
0 -13 3 -11 10 6 11 29 4 54 -14 48 -6 -2 -18 8 -25 22 -7 14 -10 18 -7 8z"/>
<path d="M12770 7320 c0 -29 4 -40 15 -40 10 0 15 -10 15 -34 0 -36 -12 -46
-56 -46 -21 0 -24 4 -24 40 0 29 -4 40 -15 40 -12 0 -15 -20 -15 -120 l0 -120
30 0 c28 0 30 -2 30 -40 0 -36 -2 -40 -25 -40 -22 0 -25 -4 -25 -40 0 -22 5
-40 10 -40 6 0 10 -18 10 -40 0 -22 5 -40 10 -40 7 0 7 -6 0 -19 -14 -27 -10
-100 8 -117 11 -12 12 -18 1 -32 -12 -16 -12 -16 6 0 17 16 17 18 2 42 -14 21
-14 24 -2 20 8 -3 22 1 31 11 15 15 14 15 -11 9 l-28 -7 21 21 c11 11 24 38
27 59 4 21 9 45 12 53 4 8 5 22 4 30 -2 8 7 2 20 -14 l23 -29 22 26 c12 14 25
23 29 19 3 -4 1 6 -4 22 -12 31 -4 56 11 35 7 -10 8 -8 3 7 -8 29 3 54 21 47
16 -6 19 12 4 22 -5 3 -7 12 -3 20 3 8 1 15 -5 15 -6 0 -12 -6 -15 -12 -2 -8
-8 -9 -13 -4 -5 5 -3 11 5 14 24 8 73 60 67 71 -4 5 -2 12 4 16 5 3 10 13 10
21 0 8 -4 13 -9 9 -6 -3 -6 7 0 27 5 18 9 34 9 34 0 1 8 0 18 -3 13 -3 18 2
20 22 2 23 -1 25 -19 20 -19 -6 -20 -4 -14 27 4 18 11 37 16 43 12 13 11 35
-2 35 -15 0 -36 -23 -42 -46 -3 -12 -5 -7 -6 14 l-1 32 -90 0 -90 0 0 -40z
m138 -212 c-6 -18 -28 -21 -28 -4 0 9 7 16 16 16 9 0 14 -5 12 -12z m-64 -99
c10 -51 8 -57 -19 -51 -22 4 -25 10 -25 43 0 31 4 39 19 39 13 0 20 -10 25
-31z m43 -51 c-3 -8 -6 -5 -6 6 -1 11 2 17 5 13 3 -3 4 -12 1 -19z m-90 -60
c-3 -7 -5 -2 -5 12 0 14 2 19 5 13 2 -7 2 -19 0 -25z m61 -30 c-2 -6 -10 -14
-16 -16 -7 -2 -10 2 -6 12 7 18 28 22 22 4z"/>
<path d="M13052 7310 c0 -14 2 -19 5 -12 2 6 2 18 0 25 -3 6 -5 1 -5 -13z"/>
<path d="M7557 7306 c-4 -11 -3 -22 3 -26 6 -4 8 -15 5 -26 -4 -12 -1 -10 9 6
l15 25 2 -25 c1 -17 3 -19 6 -8 2 10 0 25 -6 35 -8 14 -11 15 -12 3 0 -8 -4
-4 -8 10 -6 23 -8 23 -14 6z"/>
<path d="M8492 7265 c0 -16 2 -22 5 -12 2 9 2 23 0 30 -3 6 -5 -1 -5 -18z"/>
<path d="M7610 7225 c0 -8 5 -15 10 -15 6 0 10 7 10 15 0 8 -4 15 -10 15 -5 0
-10 -7 -10 -15z"/>
<path d="M7630 7185 c7 -8 16 -12 21 -9 13 8 1 24 -18 24 -13 0 -13 -3 -3 -15z"/>
<path d="M12633 7160 c0 -25 2 -35 4 -22 2 12 2 32 0 45 -2 12 -4 2 -4 -23z"/>
<path d="M12980 7188 c0 -9 5 -20 10 -23 13 -8 13 5 0 25 -8 13 -10 13 -10 -2z"/>
<path d="M8491 7154 c0 -16 4 -38 9 -49 6 -13 7 -5 3 25 -7 53 -13 66 -12 24z"/>
<path d="M11090 7171 c0 -5 5 -13 10 -16 6 -3 10 -2 10 4 0 5 -4 13 -10 16 -5
3 -10 2 -10 -4z"/>
<path d="M8521 7134 c0 -11 3 -14 6 -6 3 7 2 16 -1 19 -3 4 -6 -2 -5 -13z"/>
<path d="M12995 7120 c-4 -6 -11 -7 -17 -4 -6 4 -6 -2 1 -15 7 -11 14 -21 17
-21 3 0 2 5 -1 10 -4 6 -1 17 5 25 7 8 10 15 7 15 -3 0 -9 -5 -12 -10z"/>
<path d="M7654 7096 c-8 -35 -1 -61 18 -58 18 3 43 -49 35 -72 -7 -18 11 -36
29 -29 16 6 19 -13 4 -22 -5 -3 -7 -12 -3 -20 3 -9 -1 -23 -8 -33 -13 -15 -12
-16 4 -3 9 7 17 23 18 35 1 20 1 20 8 1 3 -11 14 -34 23 -52 10 -17 16 -38 13
-45 -8 -20 46 -97 77 -111 32 -14 34 -20 13 -37 -11 -9 -12 -17 -4 -31 5 -11
7 -24 4 -29 -3 -6 1 -7 9 -4 17 7 22 24 7 24 -5 0 -12 7 -15 16 -5 14 -4 15 8
5 11 -9 15 -9 20 1 4 9 5 9 5 -2 -4 -52 15 -54 36 -4 18 44 21 88 4 64 -9 -12
-10 -11 -6 8 5 19 1 22 -29 22 -33 0 -34 1 -34 40 0 36 -3 40 -24 40 -17 0
-26 7 -31 28 -13 43 -14 52 -7 49 9 -3 12 7 12 32 0 16 -8 20 -42 23 -30 2
-43 8 -43 18 -1 8 -6 25 -13 37 -7 12 -12 29 -12 37 0 9 -9 16 -20 16 -17 0
-20 7 -20 40 0 46 -25 57 -36 16z m17 -32 c-9 -28 -9 -29 -10 -3 -1 14 2 29 6
32 11 12 13 2 4 -29z m149 -274 c0 -5 -2 -10 -4 -10 -3 0 -8 5 -11 10 -3 6 -1
10 4 10 6 0 11 -4 11 -10z m97 -122 c-3 -7 -5 -2 -5 12 0 14 2 19 5 13 2 -7 2
-19 0 -25z"/>
<path d="M8516 7084 c-13 -33 -6 -49 9 -20 18 33 18 36 6 36 -5 0 -12 -7 -15
-16z"/>
<path d="M12962 7055 c-6 -14 -8 -25 -3 -25 8 0 23 41 17 47 -1 2 -8 -8 -14
-22z"/>
<path d="M8535 7036 c-5 -11 -4 -31 3 -48 10 -27 9 -28 -5 -16 -15 11 -16 11
-8 -7 5 -11 11 -71 13 -132 3 -110 4 -113 28 -119 28 -7 29 -11 7 -36 -15 -17
-15 -18 0 -18 10 0 17 7 17 15 0 20 19 19 27 0 3 -9 -2 -22 -13 -30 -18 -13
-18 -14 0 -34 11 -12 26 -21 34 -21 11 0 13 -8 8 -32 -3 -21 0 -42 10 -58 10
-17 13 -18 9 -5 -15 44 -14 58 2 25 17 -36 19 -42 21 -72 2 -21 28 -24 36 -5
3 6 2 -1 -1 -17 -5 -24 -3 -28 9 -23 12 4 14 0 11 -14 -3 -10 -1 -19 5 -19 6
0 13 8 15 18 4 13 5 12 6 -5 0 -12 -4 -23 -11 -25 -7 -3 -8 -9 -3 -19 5 -8 8
-24 7 -35 -4 -25 27 -42 40 -22 6 10 8 10 8 -1 0 -11 3 -11 18 0 14 11 15 11
5 -1 -15 -16 -17 -34 -4 -25 5 3 12 1 15 -4 4 -5 -1 -8 -10 -7 -8 1 -20 9 -25
17 -5 8 -9 11 -9 6 0 -4 5 -16 11 -26 9 -13 9 -26 1 -50 -10 -27 -9 -31 8 -31
10 0 21 6 23 13 4 9 8 9 15 -2 5 -7 15 -11 21 -7 6 4 9 2 6 -6 -6 -19 21 -52
38 -45 11 4 13 0 10 -14 -5 -19 -7 -19 -24 -3 -11 10 -22 14 -27 10 -4 -4 2
-14 12 -22 17 -12 18 -14 3 -14 -23 0 -22 -4 14 -39 34 -34 52 -40 42 -14 -4
11 -3 14 6 9 6 -4 9 -16 6 -26 -3 -10 0 -22 6 -26 8 -5 9 -3 4 6 -5 9 -4 11 3
6 7 -4 12 -13 12 -20 0 -8 7 -19 15 -26 15 -13 11 -35 -6 -25 -5 4 -9 -12 -9
-34 0 -30 -4 -41 -15 -41 -11 0 -15 -11 -15 -41 0 -22 4 -38 9 -34 5 3 13 1
16 -5 5 -7 11 -8 19 -1 6 5 30 10 53 9 47 0 66 8 56 25 -5 8 -2 8 9 0 8 -7 18
-9 22 -5 4 4 14 -1 21 -12 8 -10 21 -16 29 -13 8 3 29 -9 50 -29 39 -38 44
-46 21 -38 -8 4 -15 1 -15 -5 0 -6 -11 -11 -25 -11 -14 0 -25 4 -25 9 0 6 -17
11 -37 13 -24 2 -37 8 -36 16 2 6 -6 12 -17 12 -33 0 -35 1 -43 16 -10 17 -57
19 -57 2 0 -7 14 -21 31 -30 17 -10 28 -22 25 -27 -3 -5 2 -12 12 -16 16 -7
15 -8 -3 -15 -13 -5 -24 -3 -32 7 -7 9 -13 11 -18 4 -7 -13 -65 -15 -65 -2 0
4 11 6 24 4 33 -7 43 15 10 23 -26 7 -47 -9 -41 -30 6 -17 60 -26 76 -13 12
10 14 9 8 -5 -5 -14 -2 -16 17 -8 13 5 29 4 37 -1 8 -5 21 -8 29 -8 10 0 11 2
3 6 -7 2 -13 12 -13 21 0 14 2 14 9 3 7 -11 24 -12 77 -6 38 4 74 11 81 17 20
16 83 -9 83 -33 0 -17 6 -20 43 -17 39 3 42 5 41 30 -1 24 1 26 20 17 13 -7
10 -1 -9 15 -30 25 -52 29 -48 8 2 -6 -4 -9 -12 -5 -14 5 -14 7 0 17 13 10 8
17 -34 49 -53 39 -67 45 -55 25 5 -9 2 -9 -9 1 -20 16 -23 25 -4 15 6 -4 -5
10 -25 30 -23 24 -41 35 -49 30 -7 -4 -10 -3 -6 3 3 5 -11 26 -33 46 -42 41
-53 46 -43 20 6 -15 5 -16 -9 -3 -9 9 -12 18 -6 21 5 3 -5 21 -23 38 -24 25
-34 29 -40 19 -7 -10 -9 -10 -10 2 -1 8 -1 18 0 22 0 4 -9 18 -22 30 -12 13
-40 45 -61 70 -22 26 -43 45 -47 42 -4 -2 -11 1 -15 7 -4 8 -3 9 4 5 20 -12
14 -1 -44 85 -152 225 -257 481 -317 774 -4 19 -4 19 -12 1z m42 -268 c-3 -7
-5 -2 -5 12 0 14 2 19 5 13 2 -7 2 -19 0 -25z m-10 -40 c-3 -8 -6 -5 -6 6 -1
11 2 17 5 13 3 -3 4 -12 1 -19z m84 -115 c-12 -20 -14 -14 -5 12 4 9 9 14 11
11 3 -2 0 -13 -6 -23z m28 -58 c0 -5 -4 -3 -9 5 -5 8 -9 22 -9 30 0 16 17 -16
18 -35z m21 -50 c0 -5 -5 -3 -10 5 -5 8 -10 20 -10 25 0 6 5 3 10 -5 5 -8 10
-19 10 -25z m167 -301 c-3 -3 -12 -4 -19 -1 -8 3 -5 6 6 6 11 1 17 -2 13 -5z
m188 -274 c3 -5 1 -10 -4 -10 -6 0 -11 5 -11 10 0 6 2 10 4 10 3 0 8 -4 11
-10z m78 -68 c-5 -11 -1 -13 16 -7 22 7 23 7 4 -12 -10 -11 -19 -19 -21 -18
-1 1 -5 20 -7 41 -3 26 -2 34 4 25 5 -8 7 -21 4 -29z m42 20 c-3 -3 -11 0 -18
7 -9 10 -8 11 6 5 10 -3 15 -9 12 -12z m-115 -27 c10 -12 10 -15 -4 -15 -9 0
-16 7 -16 15 0 8 2 15 4 15 2 0 9 -7 16 -15z m321 -132 c13 -16 12 -17 -3 -4
-10 7 -18 15 -18 17 0 8 8 3 21 -13z"/>
<path d="M8481 7024 c0 -11 3 -14 6 -6 3 7 2 16 -1 19 -3 4 -6 -2 -5 -13z"/>
<path d="M7641 7015 c0 -5 3 -16 8 -23 7 -11 9 -10 14 3 4 9 3 14 -2 10 -5 -3
-12 1 -14 7 -3 7 -6 9 -6 3z"/>
<path d="M8481 6974 c0 -11 3 -14 6 -6 3 7 2 16 -1 19 -3 4 -6 -2 -5 -13z"/>
<path d="M12650 6920 c0 -29 4 -40 15 -40 11 0 15 11 15 40 0 29 -4 40 -15 40
-11 0 -15 -11 -15 -40z"/>
<path d="M7702 6908 c7 -15 15 -23 17 -17 2 6 -4 18 -13 27 -15 15 -15 15 -4
-10z"/>
<path d="M7920 6840 c0 -36 3 -40 25 -40 23 0 25 4 25 40 0 36 -2 40 -25 40
-22 0 -25 -4 -25 -40z"/>
<path d="M12802 6798 c0 -29 3 -37 8 -24 6 18 2 66 -6 66 -1 0 -2 -19 -2 -42z"/>
<path d="M12836 6787 c3 -10 9 -15 12 -12 3 3 0 11 -7 18 -10 9 -11 8 -5 -6z"/>
<path d="M8472 6745 c0 -16 2 -22 5 -12 2 9 2 23 0 30 -3 6 -5 -1 -5 -18z"/>
<path d="M12480 6710 c0 -5 4 -10 9 -10 6 0 13 5 16 10 3 6 -1 10 -9 10 -9 0
-16 -4 -16 -10z"/>
<path d="M12535 6690 c-7 -12 2 -30 16 -30 5 0 9 9 9 20 0 21 -15 27 -25 10z"/>
<path d="M12480 6611 c0 -39 4 -51 16 -51 12 0 14 10 12 47 -4 66 -28 70 -28
4z"/>
<path d="M12693 6643 c-23 -3 -33 -10 -33 -21 -1 -16 -2 -16 -14 1 -22 29 -36
20 -36 -23 0 -34 3 -40 21 -40 11 0 17 -4 14 -10 -3 -6 1 -7 9 -4 8 3 18 16
22 27 4 12 9 24 13 27 9 8 45 50 40 48 -2 0 -19 -3 -36 -5z"/>
<path d="M7856 6617 c3 -10 9 -15 12 -12 3 3 0 11 -7 18 -10 9 -11 8 -5 -6z"/>
<path d="M7970 6570 c-9 -17 -8 -20 8 -20 24 0 32 8 25 26 -7 20 -20 17 -33
-6z"/>
<path d="M12370 6520 c0 -29 4 -40 15 -40 11 0 15 11 15 40 0 29 -4 40 -15 40
-11 0 -15 -11 -15 -40z"/>
<path d="M12646 6515 c-9 -26 -7 -32 5 -12 6 10 9 21 6 23 -2 3 -7 -2 -11 -11z"/>
<path d="M7946 6497 c3 -10 9 -15 12 -12 3 3 0 11 -7 18 -10 9 -11 8 -5 -6z"/>
<path d="M7980 6496 c0 -8 4 -17 9 -20 5 -4 7 3 4 14 -6 23 -13 26 -13 6z"/>
<path d="M8040 6450 c0 -6 7 -13 15 -17 24 -9 27 1 5 15 -13 8 -20 8 -20 2z"/>
<path d="M8641 6444 c0 -11 3 -14 6 -6 3 7 2 16 -1 19 -3 4 -6 -2 -5 -13z"/>
<path d="M8117 6380 c3 -11 9 -17 14 -14 14 8 11 -40 -3 -55 -7 -7 -8 -12 -3
-11 24 5 27 -1 9 -15 -13 -11 -14 -14 -4 -13 9 2 14 -4 14 -14 -1 -10 2 -15 8
-12 5 3 6 14 3 24 -3 10 -1 21 5 25 17 10 48 -4 55 -26 10 -32 25 -22 25 17
l0 37 -52 -5 c-29 -3 -47 -3 -40 -1 6 3 12 10 12 17 0 7 -6 24 -12 39 -15 31
-39 37 -31 7z"/>
<path d="M12220 6360 c0 -22 5 -40 10 -40 6 0 10 18 10 40 0 22 -4 40 -10 40
-5 0 -10 -18 -10 -40z"/>
<path d="M8721 6374 c0 -11 3 -14 6 -6 3 7 2 16 -1 19 -3 4 -6 -2 -5 -13z"/>
<path d="M12520 6349 c0 -5 5 -7 10 -4 6 3 10 8 10 11 0 2 -4 4 -10 4 -5 0
-10 -5 -10 -11z"/>
<path d="M8730 6330 c0 -5 5 -10 10 -10 6 0 10 5 10 10 0 6 -4 10 -10 10 -5 0
-10 -4 -10 -10z"/>
<path d="M8430 6286 c0 -19 5 -38 10 -41 6 -4 10 10 10 34 0 23 -4 41 -10 41
-5 0 -10 -15 -10 -34z"/>
<path d="M8640 6255 c0 -9 -9 -15 -25 -15 -22 0 -25 -4 -25 -40 0 -36 3 -40
25 -40 22 0 25 4 25 39 0 31 4 41 20 46 11 4 18 11 15 16 -10 15 -35 10 -35
-6z"/>
<path d="M8205 6230 c-3 -6 1 -7 9 -4 18 7 21 14 7 14 -6 0 -13 -4 -16 -10z"/>
<path d="M8270 6230 c0 -5 12 -10 26 -10 14 0 23 4 19 10 -3 6 -15 10 -26 10
-10 0 -19 -4 -19 -10z"/>
<path d="M8400 6165 c0 -22 4 -25 40 -25 35 0 40 -3 40 -23 0 -20 -4 -22 -40
-19 -26 3 -40 0 -40 -8 0 -6 -4 -8 -10 -5 -5 3 -10 1 -10 -5 0 -7 -7 -9 -17
-5 -14 5 -15 3 -7 -5 9 -9 17 -9 34 0 25 13 30 10 33 -19 1 -20 14 -25 55 -24
6 1 12 -7 12 -17 0 -11 10 -20 27 -25 20 -5 24 -8 13 -15 -8 -5 -18 -6 -23 -3
-5 3 -4 -4 2 -16 7 -11 21 -21 32 -21 11 0 18 -4 14 -9 -3 -6 4 -15 15 -21 12
-6 20 -7 20 -1 0 5 -5 11 -11 13 -7 2 4 4 24 4 20 0 32 -3 25 -7 -6 -4 5 -17
30 -33 52 -32 58 -44 36 -61 -15 -11 -17 -16 -6 -26 10 -11 14 -11 25 0 10 10
9 11 -5 6 -24 -9 -23 0 2 25 12 12 33 20 55 20 34 0 35 1 35 40 0 39 -1 40
-35 40 -19 0 -35 -5 -35 -11 0 -5 5 -7 10 -4 6 4 10 -7 10 -24 0 -21 -5 -31
-15 -31 -10 0 -15 10 -15 34 0 32 -3 35 -32 39 l-33 4 33 1 c30 2 32 5 32 37
0 34 -1 35 -40 35 l-41 0 7 -36 7 -37 -22 22 c-11 11 -25 21 -30 21 -4 0 -20
9 -35 21 -22 18 -24 22 -12 35 8 8 25 14 38 14 24 0 48 16 48 32 0 4 -24 8
-52 9 -29 0 -47 3 -40 6 7 3 12 24 12 54 l0 49 -80 0 c-79 0 -80 0 -80 -25z"/>
<path d="M8290 6137 c14 -14 26 -24 28 -22 7 7 -9 25 -31 37 -20 10 -20 9 3
-15z"/>
<path d="M8347 6154 c-10 -10 12 -44 28 -44 18 0 18 5 5 31 -11 19 -22 24 -33
13z"/>
<path d="M12197 6025 c-9 -22 8 -26 21 -4 10 15 10 19 -2 19 -8 0 -16 -7 -19
-15z"/>
<path d="M8578 6023 c-10 -2 -18 -9 -18 -14 0 -12 17 -12 25 1 4 6 11 7 17 4
7 -4 8 -2 4 4 -4 7 -8 11 -9 11 -1 -1 -10 -3 -19 -6z"/>
<path d="M8445 5984 c10 -8 22 -20 27 -26 5 -8 7 -3 5 12 -3 18 -10 25 -27 26
-23 1 -23 1 -5 -12z"/>
<path d="M11727 5952 c-23 -25 -21 -32 8 -32 20 0 25 5 25 25 0 30 -11 32 -33
7z"/>
<path d="M11500 5930 c0 -5 5 -10 10 -10 6 0 10 5 10 10 0 6 -4 10 -10 10 -5
0 -10 -4 -10 -10z"/>
<path d="M12045 5900 c3 -5 11 -10 16 -10 6 0 7 5 4 10 -3 6 -11 10 -16 10 -6
0 -7 -4 -4 -10z"/>
<path d="M11580 5871 c-13 -26 -13 -31 5 -31 9 0 15 9 15 25 0 30 -6 32 -20 6z"/>
<path d="M8665 5830 c-3 -5 -2 -10 4 -10 5 0 13 5 16 10 3 6 2 10 -4 10 -5 0
-13 -4 -16 -10z"/>
<path d="M8818 5826 c-10 -7 -18 -18 -18 -25 0 -20 39 -51 57 -45 14 5 15 4 4
-4 -7 -5 -9 -12 -5 -14 10 -5 1 -4 -36 6 l-25 6 25 -12 c14 -7 28 -17 33 -23
11 -15 37 23 29 43 -3 10 -13 23 -21 30 -14 11 -14 13 2 26 9 7 17 16 17 20 0
11 -45 6 -62 -8z"/>
<path d="M11955 5820 c-3 -6 1 -7 9 -4 18 7 21 14 7 14 -6 0 -13 -4 -16 -10z"/>
<path d="M8900 5752 c0 -5 6 -15 14 -21 16 -13 49 -4 43 13 -4 14 -57 21 -57
8z"/>
<path d="M11165 5690 c-13 -6 -15 -9 -5 -9 8 0 22 4 30 9 18 12 2 12 -25 0z"/>
<path d="M9453 5646 c3 -8 0 -19 -6 -25 -16 -16 0 -13 29 5 20 13 28 14 37 5
9 -10 8 -11 -5 -6 -10 4 -18 3 -18 -2 0 -6 -17 -15 -39 -21 -51 -16 -68 -36
-48 -57 9 -8 22 -15 29 -16 7 0 4 -4 -7 -9 -17 -7 -17 -9 -2 -9 9 -1 17 -6 17
-12 0 -7 9 -9 21 -6 16 4 19 3 11 -5 -9 -9 -18 -8 -37 0 -14 7 -39 12 -55 12
-15 0 -30 4 -32 10 -2 6 -8 6 -18 0 -13 -8 -12 -10 3 -10 9 0 17 -5 17 -11 0
-5 4 -8 8 -5 5 3 41 -6 80 -20 111 -38 256 -73 283 -68 21 4 22 3 4 -5 -23
-11 -16 -14 45 -15 30 -1 44 -5 43 -13 -2 -7 4 -13 13 -13 9 0 12 5 8 13 -6
10 -4 10 7 0 7 -7 36 -13 64 -14 36 0 44 -3 30 -9 -13 -5 4 -8 50 -8 71 0 125
-5 180 -16 17 -3 8 2 -20 13 -27 10 -103 42 -169 70 -65 28 -122 48 -127 45
-5 -3 -8 -1 -7 4 4 14 -168 103 -186 96 -7 -3 -17 -1 -21 5 -3 7 0 8 9 5 31
-12 15 5 -29 31 -25 14 -50 23 -57 19 -7 -4 -8 -3 -4 4 4 7 -7 18 -26 29 -42
22 -82 27 -75 9z m196 -122 c14 -12 -19 -1 -35 12 -18 14 -18 14 6 3 14 -6 27
-13 29 -15z m-114 -33 c19 -8 19 -8 -4 -21 -21 -11 -23 -10 -18 3 4 10 -1 17
-11 20 -12 3 -13 5 -2 5 8 0 24 -3 35 -7z m90 -1 c3 -5 2 -10 -4 -10 -5 0 -13
5 -16 10 -3 6 -2 10 4 10 5 0 13 -4 16 -10z m115 -40 c0 -5 -7 -7 -15 -4 -8 4
-15 8 -15 10 0 2 7 4 15 4 8 0 15 -4 15 -10z m-93 -16 c-3 -3 -12 -4 -19 -1
-8 3 -5 6 6 6 11 1 17 -2 13 -5z m90 -10 c-3 -3 -12 -4 -19 -1 -8 3 -5 6 6 6
11 1 17 -2 13 -5z m183 -48 c0 -2 -7 -7 -16 -10 -8 -3 -12 -2 -9 4 6 10 25 14
25 6z"/>
<path d="M9270 5638 c0 -14 -8 -18 -34 -18 -19 0 -36 -5 -38 -12 -2 -6 -21
-12 -41 -12 -35 -2 -44 -7 -34 -24 2 -4 2 -1 1 6 -4 14 3 14 31 2 19 -8 19 -9
1 -9 -11 -1 -17 -3 -14 -6 3 -4 18 -3 34 1 26 7 26 8 9 15 -15 7 -11 8 16 7
20 -1 43 3 51 10 15 12 28 7 28 -10 0 -6 -5 -8 -12 -6 -6 2 -20 -4 -31 -15
-14 -14 -16 -21 -6 -33 14 -17 30 -18 27 -1 -3 11 7 14 75 16 20 1 27 6 27 20
0 11 -5 23 -10 26 -6 4 -7 12 -3 18 4 7 -2 5 -12 -3 -10 -8 -16 -10 -12 -3 5
7 -2 14 -15 19 -13 4 -26 12 -30 18 -5 7 -8 4 -8 -6z m40 -28 c0 -5 -4 -10
-10 -10 -5 0 -10 5 -10 10 0 6 5 10 10 10 6 0 10 -4 10 -10z"/>
<path d="M11105 5610 c-3 -5 -1 -10 4 -10 6 0 11 5 11 10 0 6 -2 10 -4 10 -3
0 -8 -4 -11 -10z"/>
<path d="M9368 5513 c7 -3 16 -2 19 1 4 3 -2 6 -13 5 -11 0 -14 -3 -6 -6z"/>
<path d="M10508 5313 c7 -3 16 -2 19 1 4 3 -2 6 -13 5 -11 0 -14 -3 -6 -6z"/>
</g>
</svg>
